<?xml version="1.0" encoding="UTF-8" standalone="no"?><svg xmlns="http://www.w3.org/2000/svg" xmlns:xlink="http://www.w3.org/1999/xlink" clip-rule="evenodd" stroke-miterlimit="4.00" viewBox="0 0 1920 1080"><desc>SVG generated by Keynote</desc><defs></defs><g transform="matrix(1.00, 0.00, -0.00, -1.00, 0.0, 1080.0)"><path d="M 0.0 1080.0 L 1920.0 1080.0 L 1920.0 0.0 L 0.0 0.0 Z M 0.0 1080.0 " fill="#000000"></path><text xml:space="preserve" font-family="Helvetica-Light" font-size="112.0" fill="#FEFFFF" transform="matrix(1.00, 0.00, -0.00, -1.00, 459.0, 566.0)">B</text><text xml:space="preserve" font-family="Helvetica-Light" font-size="112.0" fill="#FEFFFF" transform="matrix(1.00, 0.00, -0.00, -1.00, 533.7, 566.0)">u</text><text xml:space="preserve" font-family="Helvetica-Light" font-size="112.0" fill="#FEFFFF" transform="matrix(1.00, 0.00, -0.00, -1.00, 596.0, 566.0)">t</text><text xml:space="preserve" font-family="Helvetica-Light" font-size="112.0" fill="#FEFFFF" transform="matrix(1.00, 0.00, -0.00, -1.00, 627.1, 566.0)"> </text><text xml:space="preserve" font-family="Helvetica-Light" font-size="112.0" fill="#FEFFFF" transform="matrix(1.00, 0.00, -0.00, -1.00, 658.2, 566.0)">f</text><text xml:space="preserve" font-family="Helvetica-Light" font-size="112.0" fill="#FEFFFF" transform="matrix(1.00, 0.00, -0.00, -1.00, 689.4, 566.0)">o</text><text xml:space="preserve" font-family="Helvetica-Light" font-size="112.0" fill="#FEFFFF" transform="matrix(1.00, 0.00, -0.00, -1.00, 751.7, 566.0)">r</text><text xml:space="preserve" font-family="Helvetica-Light" font-size="112.0" fill="#FEFFFF" transform="matrix(1.00, 0.00, -0.00, -1.00, 789.0, 566.0)"> </text><text xml:space="preserve" font-family="Helvetica-Light" font-size="112.0" fill="#FEFFFF" transform="matrix(1.00, 0.00, -0.00, -1.00, 820.1, 566.0)">u</text><text xml:space="preserve" font-family="Helvetica-Light" font-size="112.0" fill="#FEFFFF" transform="matrix(1.00, 0.00, -0.00, -1.00, 882.4, 566.0)">s</text><text xml:space="preserve" font-family="Helvetica-Light" font-size="112.0" fill="#FEFFFF" transform="matrix(1.00, 0.00, -0.00, -1.00, 938.4, 566.0)"> </text><text xml:space="preserve" font-family="Helvetica-Light" font-size="112.0" fill="#FEFFFF" transform="matrix(1.00, 0.00, -0.00, -1.00, 969.5, 566.0)">t</text><text xml:space="preserve" font-family="Helvetica-Light" font-size="112.0" fill="#FEFFFF" transform="matrix(1.00, 0.00, -0.00, -1.00, 1000.6, 566.0)">o</text><text xml:space="preserve" font-family="Helvetica-Light" font-size="112.0" fill="#FEFFFF" transform="matrix(1.00, 0.00, -0.00, -1.00, 1062.9, 566.0)"> </text><text xml:space="preserve" font-family="Helvetica-Light" font-size="112.0" fill="#FEFFFF" transform="matrix(1.00, 0.00, -0.00, -1.00, 1094.0, 566.0)">d</text><text xml:space="preserve" font-family="Helvetica-Light" font-size="112.0" fill="#FEFFFF" transform="matrix(1.00, 0.00, -0.00, -1.00, 1162.5, 566.0)">o</text><text xml:space="preserve" font-family="Helvetica-Light" font-size="112.0" fill="#FEFFFF" transform="matrix(1.00, 0.00, -0.00, -1.00, 1224.7, 566.0)"> </text><text xml:space="preserve" font-family="Helvetica-Light" font-size="112.0" fill="#FEFFFF" transform="matrix(1.00, 0.00, -0.00, -1.00, 1255.9, 566.0)">t</text><text xml:space="preserve" font-family="Helvetica-Light" font-size="112.0" fill="#FEFFFF" transform="matrix(1.00, 0.00, -0.00, -1.00, 1287.0, 566.0)">h</text><text xml:space="preserve" font-family="Helvetica-Light" font-size="112.0" fill="#FEFFFF" transform="matrix(1.00, 0.00, -0.00, -1.00, 1349.3, 566.0)">i</text><text xml:space="preserve" font-family="Helvetica-Light" font-size="112.0" fill="#FEFFFF" transform="matrix(1.00, 0.00, -0.00, -1.00, 1374.2, 566.0)">s</text><text xml:space="preserve" font-family="Helvetica-Light" font-size="112.0" fill="#FEFFFF" transform="matrix(1.00, 0.00, -0.00, -1.00, 1430.2, 566.0)">,</text><text xml:space="preserve" font-family="Helvetica-Light" font-size="112.0" fill="#FEFFFF" transform="matrix(1.00, 0.00, -0.00, -1.00, 1461.3, 566.0)"> </text><text xml:space="preserve" font-family="Helvetica-Light" font-size="112.0" fill="#FEFFFF" transform="matrix(1.00, 0.00, -0.00, -1.00, 506.0, 432.0)">w</text><text xml:space="preserve" font-family="Helvetica-Light" font-size="112.0" fill="#FEFFFF" transform="matrix(1.00, 0.00, -0.00, -1.00, 586.9, 432.0)">e</text><text xml:space="preserve" font-family="Helvetica-Light" font-size="112.0" fill="#FEFFFF" transform="matrix(1.00, 0.00, -0.00, -1.00, 649.1, 432.0)"> </text><text xml:space="preserve" font-family="Helvetica-Light" font-size="112.0" fill="#FEFFFF" transform="matrix(1.00, 0.00, -0.00, -1.00, 680.3, 432.0)">a</text><text xml:space="preserve" font-family="Helvetica-Light" font-size="112.0" fill="#FEFFFF" transform="matrix(1.00, 0.00, -0.00, -1.00, 742.5, 432.0)">l</text><text xml:space="preserve" font-family="Helvetica-Light" font-size="112.0" fill="#FEFFFF" transform="matrix(1.00, 0.00, -0.00, -1.00, 767.4, 432.0)">l</text><text xml:space="preserve" font-family="Helvetica-Light" font-size="112.0" fill="#FEFFFF" transform="matrix(1.00, 0.00, -0.00, -1.00, 792.3, 432.0)"> </text><text xml:space="preserve" font-family="Helvetica-Light" font-size="112.0" fill="#FEFFFF" transform="matrix(1.00, 0.00, -0.00, -1.00, 823.4, 432.0)">m</text><text xml:space="preserve" font-family="Helvetica-Light" font-size="112.0" fill="#FEFFFF" transform="matrix(1.00, 0.00, -0.00, -1.00, 916.7, 432.0)">u</text><text xml:space="preserve" font-family="Helvetica-Light" font-size="112.0" fill="#FEFFFF" transform="matrix(1.00, 0.00, -0.00, -1.00, 979.0, 432.0)">s</text><text xml:space="preserve" font-family="Helvetica-Light" font-size="112.0" fill="#FEFFFF" transform="matrix(1.00, 0.00, -0.00, -1.00, 1035.0, 432.0)">t</text><text xml:space="preserve" font-family="Helvetica-Light" font-size="112.0" fill="#FEFFFF" transform="matrix(1.00, 0.00, -0.00, -1.00, 1066.1, 432.0)"> </text><text xml:space="preserve" font-family="Helvetica-Light" font-size="112.0" fill="#FEFFFF" transform="matrix(1.00, 0.00, -0.00, -1.00, 1097.2, 432.0)">a</text><text xml:space="preserve" font-family="Helvetica-Light" font-size="112.0" fill="#FEFFFF" transform="matrix(1.00, 0.00, -0.00, -1.00, 1159.5, 432.0)">s</text><text xml:space="preserve" font-family="Helvetica-Light" font-size="112.0" fill="#FEFFFF" transform="matrix(1.00, 0.00, -0.00, -1.00, 1215.5, 432.0)">s</text><text xml:space="preserve" font-family="Helvetica-Light" font-size="112.0" fill="#FEFFFF" transform="matrix(1.00, 0.00, -0.00, -1.00, 1271.5, 432.0)">i</text><text xml:space="preserve" font-family="Helvetica-Light" font-size="112.0" fill="#FEFFFF" transform="matrix(1.00, 0.00, -0.00, -1.00, 1296.4, 432.0)">s</text><text xml:space="preserve" font-family="Helvetica-Light" font-size="112.0" fill="#FEFFFF" transform="matrix(1.00, 0.00, -0.00, -1.00, 1352.4, 432.0)">t</text><text xml:space="preserve" font-family="Helvetica-Light" font-size="112.0" fill="#FEFFFF" transform="matrix(1.00, 0.00, -0.00, -1.00, 1383.5, 432.0)">.</text></g></svg>