<?xml version="1.0" encoding="UTF-8" standalone="no"?><svg xmlns="http://www.w3.org/2000/svg" xmlns:xlink="http://www.w3.org/1999/xlink" clip-rule="evenodd" stroke-miterlimit="4.00" viewBox="0 0 1920 1080"><desc>SVG generated by Keynote</desc><defs></defs><g transform="matrix(1.00, 0.00, -0.00, -1.00, 0.0, 1080.0)"><path d="M 0.0 1080.0 L 1920.0 1080.0 L 1920.0 0.0 L 0.0 0.0 Z M 0.0 1080.0 " fill="#FEFFFE"></path><text xml:space="preserve" font-family="Helvetica-Bold" font-weight="bold" font-size="112.0" fill="#000000" transform="matrix(1.00, 0.00, -0.00, -1.00, 668.0, 499.0)">S</text><text xml:space="preserve" font-family="Helvetica-Bold" font-weight="bold" font-size="112.0" fill="#000000" transform="matrix(1.00, 0.00, -0.00, -1.00, 742.7, 499.0)">t</text><text xml:space="preserve" font-family="Helvetica-Bold" font-weight="bold" font-size="112.0" fill="#000000" transform="matrix(1.00, 0.00, -0.00, -1.00, 780.0, 499.0)">o</text><text xml:space="preserve" font-family="Helvetica-Bold" font-weight="bold" font-size="112.0" fill="#000000" transform="matrix(1.00, 0.00, -0.00, -1.00, 848.4, 499.0)">r</text><text xml:space="preserve" font-family="Helvetica-Bold" font-weight="bold" font-size="112.0" fill="#000000" transform="matrix(1.00, 0.00, -0.00, -1.00, 892.0, 499.0)">y</text><text xml:space="preserve" font-family="Helvetica-Bold" font-weight="bold" font-size="112.0" fill="#000000" transform="matrix(1.00, 0.00, -0.00, -1.00, 954.3, 499.0)"> </text><text xml:space="preserve" font-family="Helvetica-Bold" font-weight="bold" font-size="112.0" fill="#000000" transform="matrix(1.00, 0.00, -0.00, -1.00, 985.4, 499.0)">t</text><text xml:space="preserve" font-family="Helvetica-Bold" font-weight="bold" font-size="112.0" fill="#000000" transform="matrix(1.00, 0.00, -0.00, -1.00, 1022.7, 499.0)">i</text><text xml:space="preserve" font-family="Helvetica-Bold" font-weight="bold" font-size="112.0" fill="#000000" transform="matrix(1.00, 0.00, -0.00, -1.00, 1053.8, 499.0)">m</text><text xml:space="preserve" font-family="Helvetica-Bold" font-weight="bold" font-size="112.0" fill="#000000" transform="matrix(1.00, 0.00, -0.00, -1.00, 1153.4, 499.0)">e</text><text xml:space="preserve" font-family="Helvetica-Bold" font-weight="bold" font-size="112.0" fill="#000000" transform="matrix(1.00, 0.00, -0.00, -1.00, 1215.7, 499.0)">!</text></g></svg>