<?xml version="1.0" encoding="UTF-8" standalone="no"?><svg xmlns="http://www.w3.org/2000/svg" xmlns:xlink="http://www.w3.org/1999/xlink" clip-rule="evenodd" stroke-miterlimit="4.00" viewBox="0 0 1920 1080"><desc>SVG generated by Keynote</desc><defs></defs><g transform="matrix(1.00, 0.00, -0.00, -1.00, 0.0, 1080.0)"><path d="M 0.0 1080.0 L 1920.0 1080.0 L 1920.0 0.0 L 0.0 0.0 Z M 0.0 1080.0 " fill="#000000"></path><text xml:space="preserve" font-family="Helvetica-Light" font-size="101.9" fill="#FEFFFF" transform="matrix(1.00, 0.00, -0.00, -1.00, 146.0, 563.0)">T</text><text xml:space="preserve" font-family="Helvetica-Light" font-size="101.9" fill="#FEFFFF" transform="matrix(1.00, 0.00, -0.00, -1.00, 202.7, 563.0)">h</text><text xml:space="preserve" font-family="Helvetica-Light" font-size="101.9" fill="#FEFFFF" transform="matrix(1.00, 0.00, -0.00, -1.00, 259.3, 563.0)">e</text><text xml:space="preserve" font-family="Helvetica-Light" font-size="101.9" fill="#FEFFFF" transform="matrix(1.00, 0.00, -0.00, -1.00, 316.0, 563.0)"> </text><text xml:space="preserve" font-family="Helvetica-Light" font-size="101.9" fill="#FEFFFF" transform="matrix(1.00, 0.00, -0.00, -1.00, 344.3, 563.0)">i</text><text xml:space="preserve" font-family="Helvetica-Light" font-size="101.9" fill="#FEFFFF" transform="matrix(1.00, 0.00, -0.00, -1.00, 367.0, 563.0)">n</text><text xml:space="preserve" font-family="Helvetica-Light" font-size="101.9" fill="#FEFFFF" transform="matrix(1.00, 0.00, -0.00, -1.00, 423.6, 563.0)">t</text><text xml:space="preserve" font-family="Helvetica-Light" font-size="101.9" fill="#FEFFFF" transform="matrix(1.00, 0.00, -0.00, -1.00, 452.0, 563.0)">e</text><text xml:space="preserve" font-family="Helvetica-Light" font-size="101.9" fill="#FEFFFF" transform="matrix(1.00, 0.00, -0.00, -1.00, 508.6, 563.0)">r</text><text xml:space="preserve" font-family="Helvetica-Light" font-size="101.9" fill="#FEFFFF" transform="matrix(1.00, 0.00, -0.00, -1.00, 544.4, 563.0)">n</text><text xml:space="preserve" font-family="Helvetica-Light" font-size="101.9" fill="#FEFFFF" transform="matrix(1.00, 0.00, -0.00, -1.00, 601.1, 563.0)">e</text><text xml:space="preserve" font-family="Helvetica-Light" font-size="101.9" fill="#FEFFFF" transform="matrix(1.00, 0.00, -0.00, -1.00, 657.7, 563.0)">t</text><text xml:space="preserve" font-family="Helvetica-Light" font-size="101.9" fill="#FEFFFF" transform="matrix(1.00, 0.00, -0.00, -1.00, 686.1, 563.0)"> </text><text xml:space="preserve" font-family="Helvetica-Light" font-size="101.9" fill="#FEFFFF" transform="matrix(1.00, 0.00, -0.00, -1.00, 714.4, 563.0)">i</text><text xml:space="preserve" font-family="Helvetica-Light" font-size="101.9" fill="#FEFFFF" transform="matrix(1.00, 0.00, -0.00, -1.00, 737.0, 563.0)">s</text><text xml:space="preserve" font-family="Helvetica-Light" font-size="101.9" fill="#FEFFFF" transform="matrix(1.00, 0.00, -0.00, -1.00, 788.0, 563.0)"> </text><text xml:space="preserve" font-family="Helvetica-Light" font-size="101.9" fill="#FEFFFF" transform="matrix(1.00, 0.00, -0.00, -1.00, 816.3, 563.0)">n</text><text xml:space="preserve" font-family="Helvetica-Light" font-size="101.9" fill="#FEFFFF" transform="matrix(1.00, 0.00, -0.00, -1.00, 873.0, 563.0)">o</text><text xml:space="preserve" font-family="Helvetica-Light" font-size="101.9" fill="#FEFFFF" transform="matrix(1.00, 0.00, -0.00, -1.00, 929.7, 563.0)">w</text><text xml:space="preserve" font-family="Helvetica-Light" font-size="101.9" fill="#FEFFFF" transform="matrix(1.00, 0.00, -0.00, -1.00, 1003.2, 563.0)"> </text><text xml:space="preserve" font-family="Helvetica-Light" font-size="101.9" fill="#FEFFFF" transform="matrix(1.00, 0.00, -0.00, -1.00, 1031.6, 563.0)">a</text><text xml:space="preserve" font-family="Helvetica-Light" font-size="101.9" fill="#FEFFFF" transform="matrix(1.00, 0.00, -0.00, -1.00, 1088.3, 563.0)"> </text><text xml:space="preserve" font-family="Helvetica-Light" font-size="101.9" fill="#FEFFFF" transform="matrix(1.00, 0.00, -0.00, -1.00, 1116.6, 563.0)">c</text><text xml:space="preserve" font-family="Helvetica-Light" font-size="101.9" fill="#FEFFFF" transform="matrix(1.00, 0.00, -0.00, -1.00, 1173.3, 563.0)">o</text><text xml:space="preserve" font-family="Helvetica-Light" font-size="101.9" fill="#FEFFFF" transform="matrix(1.00, 0.00, -0.00, -1.00, 1229.9, 563.0)">n</text><text xml:space="preserve" font-family="Helvetica-Light" font-size="101.9" fill="#FEFFFF" transform="matrix(1.00, 0.00, -0.00, -1.00, 1286.6, 563.0)">d</text><text xml:space="preserve" font-family="Helvetica-Light" font-size="101.9" fill="#FEFFFF" transform="matrix(1.00, 0.00, -0.00, -1.00, 1348.9, 563.0)">u</text><text xml:space="preserve" font-family="Helvetica-Light" font-size="101.9" fill="#FEFFFF" transform="matrix(1.00, 0.00, -0.00, -1.00, 1405.5, 563.0)">i</text><text xml:space="preserve" font-family="Helvetica-Light" font-size="101.9" fill="#FEFFFF" transform="matrix(1.00, 0.00, -0.00, -1.00, 1428.2, 563.0)">t</text><text xml:space="preserve" font-family="Helvetica-Light" font-size="101.9" fill="#FEFFFF" transform="matrix(1.00, 0.00, -0.00, -1.00, 1456.5, 563.0)"> </text><text xml:space="preserve" font-family="Helvetica-Light" font-size="101.9" fill="#FEFFFF" transform="matrix(1.00, 0.00, -0.00, -1.00, 1484.8, 563.0)">f</text><text xml:space="preserve" font-family="Helvetica-Light" font-size="101.9" fill="#FEFFFF" transform="matrix(1.00, 0.00, -0.00, -1.00, 1513.2, 563.0)">o</text><text xml:space="preserve" font-family="Helvetica-Light" font-size="101.9" fill="#FEFFFF" transform="matrix(1.00, 0.00, -0.00, -1.00, 1569.8, 563.0)">r</text><text xml:space="preserve" font-family="Helvetica-Light" font-size="101.9" fill="#FEFFFF" transform="matrix(1.00, 0.00, -0.00, -1.00, 1603.8, 563.0)"> </text><text xml:space="preserve" font-family="Helvetica-Light" font-size="101.9" fill="#FEFFFF" transform="matrix(1.00, 0.00, -0.00, -1.00, 1632.1, 563.0)">t</text><text xml:space="preserve" font-family="Helvetica-Light" font-size="101.9" fill="#FEFFFF" transform="matrix(1.00, 0.00, -0.00, -1.00, 1660.4, 563.0)">h</text><text xml:space="preserve" font-family="Helvetica-Light" font-size="101.9" fill="#FEFFFF" transform="matrix(1.00, 0.00, -0.00, -1.00, 1717.1, 563.0)">e</text><text xml:space="preserve" font-family="Helvetica-Light" font-size="101.9" fill="#FEFFFF" transform="matrix(1.00, 0.00, -0.00, -1.00, 1773.8, 563.0)"> </text><text xml:space="preserve" font-family="Helvetica-Light" font-size="101.9" fill="#FEFFFF" transform="matrix(1.00, 0.00, -0.00, -1.00, 144.0, 442.0)">e</text><text xml:space="preserve" font-family="Helvetica-Light" font-size="101.9" fill="#FEFFFF" transform="matrix(1.00, 0.00, -0.00, -1.00, 200.7, 442.0)">x</text><text xml:space="preserve" font-family="Helvetica-Light" font-size="101.9" fill="#FEFFFF" transform="matrix(1.00, 0.00, -0.00, -1.00, 251.6, 442.0)">p</text><text xml:space="preserve" font-family="Helvetica-Light" font-size="101.9" fill="#FEFFFF" transform="matrix(1.00, 0.00, -0.00, -1.00, 313.9, 442.0)">a</text><text xml:space="preserve" font-family="Helvetica-Light" font-size="101.9" fill="#FEFFFF" transform="matrix(1.00, 0.00, -0.00, -1.00, 370.6, 442.0)">n</text><text xml:space="preserve" font-family="Helvetica-Light" font-size="101.9" fill="#FEFFFF" transform="matrix(1.00, 0.00, -0.00, -1.00, 427.2, 442.0)">s</text><text xml:space="preserve" font-family="Helvetica-Light" font-size="101.9" fill="#FEFFFF" transform="matrix(1.00, 0.00, -0.00, -1.00, 478.2, 442.0)">i</text><text xml:space="preserve" font-family="Helvetica-Light" font-size="101.9" fill="#FEFFFF" transform="matrix(1.00, 0.00, -0.00, -1.00, 500.8, 442.0)">o</text><text xml:space="preserve" font-family="Helvetica-Light" font-size="101.9" fill="#FEFFFF" transform="matrix(1.00, 0.00, -0.00, -1.00, 557.5, 442.0)">n</text><text xml:space="preserve" font-family="Helvetica-Light" font-size="101.9" fill="#FEFFFF" transform="matrix(1.00, 0.00, -0.00, -1.00, 614.2, 442.0)"> </text><text xml:space="preserve" font-family="Helvetica-Light" font-size="101.9" fill="#FEFFFF" transform="matrix(1.00, 0.00, -0.00, -1.00, 642.5, 442.0)">o</text><text xml:space="preserve" font-family="Helvetica-Light" font-size="101.9" fill="#FEFFFF" transform="matrix(1.00, 0.00, -0.00, -1.00, 699.2, 442.0)">f</text><text xml:space="preserve" font-family="Helvetica-Light" font-size="101.9" fill="#FEFFFF" transform="matrix(1.00, 0.00, -0.00, -1.00, 727.5, 442.0)"> </text><text xml:space="preserve" font-family="Helvetica-Light" font-size="101.9" fill="#FEFFFF" transform="matrix(1.00, 0.00, -0.00, -1.00, 755.8, 442.0)">h</text><text xml:space="preserve" font-family="Helvetica-Light" font-size="101.9" fill="#FEFFFF" transform="matrix(1.00, 0.00, -0.00, -1.00, 812.5, 442.0)">u</text><text xml:space="preserve" font-family="Helvetica-Light" font-size="101.9" fill="#FEFFFF" transform="matrix(1.00, 0.00, -0.00, -1.00, 869.2, 442.0)">m</text><text xml:space="preserve" font-family="Helvetica-Light" font-size="101.9" fill="#FEFFFF" transform="matrix(1.00, 0.00, -0.00, -1.00, 954.1, 442.0)">a</text><text xml:space="preserve" font-family="Helvetica-Light" font-size="101.9" fill="#FEFFFF" transform="matrix(1.00, 0.00, -0.00, -1.00, 1010.7, 442.0)">n</text><text xml:space="preserve" font-family="Helvetica-Light" font-size="101.9" fill="#FEFFFF" transform="matrix(1.00, 0.00, -0.00, -1.00, 1067.4, 442.0)"> </text><text xml:space="preserve" font-family="Helvetica-Light" font-size="101.9" fill="#FEFFFF" transform="matrix(1.00, 0.00, -0.00, -1.00, 1095.7, 442.0)">c</text><text xml:space="preserve" font-family="Helvetica-Light" font-size="101.9" fill="#FEFFFF" transform="matrix(1.00, 0.00, -0.00, -1.00, 1152.4, 442.0)">o</text><text xml:space="preserve" font-family="Helvetica-Light" font-size="101.9" fill="#FEFFFF" transform="matrix(1.00, 0.00, -0.00, -1.00, 1209.1, 442.0)">n</text><text xml:space="preserve" font-family="Helvetica-Light" font-size="101.9" fill="#FEFFFF" transform="matrix(1.00, 0.00, -0.00, -1.00, 1265.7, 442.0)">s</text><text xml:space="preserve" font-family="Helvetica-Light" font-size="101.9" fill="#FEFFFF" transform="matrix(1.00, 0.00, -0.00, -1.00, 1316.7, 442.0)">c</text><text xml:space="preserve" font-family="Helvetica-Light" font-size="101.9" fill="#FEFFFF" transform="matrix(1.00, 0.00, -0.00, -1.00, 1373.4, 442.0)">i</text><text xml:space="preserve" font-family="Helvetica-Light" font-size="101.9" fill="#FEFFFF" transform="matrix(1.00, 0.00, -0.00, -1.00, 1396.0, 442.0)">o</text><text xml:space="preserve" font-family="Helvetica-Light" font-size="101.9" fill="#FEFFFF" transform="matrix(1.00, 0.00, -0.00, -1.00, 1452.7, 442.0)">u</text><text xml:space="preserve" font-family="Helvetica-Light" font-size="101.9" fill="#FEFFFF" transform="matrix(1.00, 0.00, -0.00, -1.00, 1509.3, 442.0)">s</text><text xml:space="preserve" font-family="Helvetica-Light" font-size="101.9" fill="#FEFFFF" transform="matrix(1.00, 0.00, -0.00, -1.00, 1560.3, 442.0)">n</text><text xml:space="preserve" font-family="Helvetica-Light" font-size="101.9" fill="#FEFFFF" transform="matrix(1.00, 0.00, -0.00, -1.00, 1616.9, 442.0)">e</text><text xml:space="preserve" font-family="Helvetica-Light" font-size="101.9" fill="#FEFFFF" transform="matrix(1.00, 0.00, -0.00, -1.00, 1673.6, 442.0)">s</text><text xml:space="preserve" font-family="Helvetica-Light" font-size="101.9" fill="#FEFFFF" transform="matrix(1.00, 0.00, -0.00, -1.00, 1724.6, 442.0)">s</text></g></svg>