<?xml version="1.0" encoding="UTF-8" standalone="no"?><svg xmlns="http://www.w3.org/2000/svg" xmlns:xlink="http://www.w3.org/1999/xlink" clip-rule="evenodd" stroke-miterlimit="4.00" viewBox="0 0 1920 1080"><desc>SVG generated by Keynote</desc><defs></defs><g transform="matrix(1.00, 0.00, -0.00, -1.00, 0.0, 1080.0)"><path d="M 0.0 1080.0 L 1920.0 1080.0 L 1920.0 0.0 L 0.0 0.0 Z M 0.0 1080.0 " fill="#000000"></path><text xml:space="preserve" font-family="Helvetica-Light" font-size="112.0" fill="#FEFFFF" transform="matrix(1.00, 0.00, -0.00, -1.00, 155.0, 566.0)">W</text><text xml:space="preserve" font-family="Helvetica-Light" font-size="112.0" fill="#FEFFFF" transform="matrix(1.00, 0.00, -0.00, -1.00, 252.6, 566.0)">e</text><text xml:space="preserve" font-family="Helvetica-Light" font-size="112.0" fill="#FEFFFF" transform="matrix(1.00, 0.00, -0.00, -1.00, 314.8, 566.0)"> </text><text xml:space="preserve" font-family="Helvetica-Light" font-size="112.0" fill="#FEFFFF" transform="matrix(1.00, 0.00, -0.00, -1.00, 346.0, 566.0)">c</text><text xml:space="preserve" font-family="Helvetica-Light" font-size="112.0" fill="#FEFFFF" transform="matrix(1.00, 0.00, -0.00, -1.00, 408.2, 566.0)">a</text><text xml:space="preserve" font-family="Helvetica-Light" font-size="112.0" fill="#FEFFFF" transform="matrix(1.00, 0.00, -0.00, -1.00, 470.5, 566.0)">n</text><text xml:space="preserve" font-family="Helvetica-Light" font-size="112.0" fill="#FEFFFF" transform="matrix(1.00, 0.00, -0.00, -1.00, 532.8, 566.0)"> </text><text xml:space="preserve" font-family="Helvetica-Light" font-size="112.0" fill="#FEFFFF" transform="matrix(1.00, 0.00, -0.00, -1.00, 563.9, 566.0)">u</text><text xml:space="preserve" font-family="Helvetica-Light" font-size="112.0" fill="#FEFFFF" transform="matrix(1.00, 0.00, -0.00, -1.00, 626.2, 566.0)">n</text><text xml:space="preserve" font-family="Helvetica-Light" font-size="112.0" fill="#FEFFFF" transform="matrix(1.00, 0.00, -0.00, -1.00, 688.5, 566.0)">d</text><text xml:space="preserve" font-family="Helvetica-Light" font-size="112.0" fill="#FEFFFF" transform="matrix(1.00, 0.00, -0.00, -1.00, 756.9, 566.0)">e</text><text xml:space="preserve" font-family="Helvetica-Light" font-size="112.0" fill="#FEFFFF" transform="matrix(1.00, 0.00, -0.00, -1.00, 819.2, 566.0)">r</text><text xml:space="preserve" font-family="Helvetica-Light" font-size="112.0" fill="#FEFFFF" transform="matrix(1.00, 0.00, -0.00, -1.00, 856.5, 566.0)">s</text><text xml:space="preserve" font-family="Helvetica-Light" font-size="112.0" fill="#FEFFFF" transform="matrix(1.00, 0.00, -0.00, -1.00, 912.5, 566.0)">t</text><text xml:space="preserve" font-family="Helvetica-Light" font-size="112.0" fill="#FEFFFF" transform="matrix(1.00, 0.00, -0.00, -1.00, 943.6, 566.0)">a</text><text xml:space="preserve" font-family="Helvetica-Light" font-size="112.0" fill="#FEFFFF" transform="matrix(1.00, 0.00, -0.00, -1.00, 1005.9, 566.0)">n</text><text xml:space="preserve" font-family="Helvetica-Light" font-size="112.0" fill="#FEFFFF" transform="matrix(1.00, 0.00, -0.00, -1.00, 1068.1, 566.0)">d</text><text xml:space="preserve" font-family="Helvetica-Light" font-size="112.0" fill="#FEFFFF" transform="matrix(1.00, 0.00, -0.00, -1.00, 1136.6, 566.0)"> </text><text xml:space="preserve" font-family="Helvetica-Light" font-size="112.0" fill="#FEFFFF" transform="matrix(1.00, 0.00, -0.00, -1.00, 1167.7, 566.0)">a</text><text xml:space="preserve" font-family="Helvetica-Light" font-size="112.0" fill="#FEFFFF" transform="matrix(1.00, 0.00, -0.00, -1.00, 1230.0, 566.0)">n</text><text xml:space="preserve" font-family="Helvetica-Light" font-size="112.0" fill="#FEFFFF" transform="matrix(1.00, 0.00, -0.00, -1.00, 1292.2, 566.0)">d</text><text xml:space="preserve" font-family="Helvetica-Light" font-size="112.0" fill="#FEFFFF" transform="matrix(1.00, 0.00, -0.00, -1.00, 1360.7, 566.0)"> </text><text xml:space="preserve" font-family="Helvetica-Light" font-size="112.0" fill="#FEFFFF" transform="matrix(1.00, 0.00, -0.00, -1.00, 1391.8, 566.0)">i</text><text xml:space="preserve" font-family="Helvetica-Light" font-size="112.0" fill="#FEFFFF" transform="matrix(1.00, 0.00, -0.00, -1.00, 1416.7, 566.0)">n</text><text xml:space="preserve" font-family="Helvetica-Light" font-size="112.0" fill="#FEFFFF" transform="matrix(1.00, 0.00, -0.00, -1.00, 1479.0, 566.0)">t</text><text xml:space="preserve" font-family="Helvetica-Light" font-size="112.0" fill="#FEFFFF" transform="matrix(1.00, 0.00, -0.00, -1.00, 1510.1, 566.0)">e</text><text xml:space="preserve" font-family="Helvetica-Light" font-size="112.0" fill="#FEFFFF" transform="matrix(1.00, 0.00, -0.00, -1.00, 1572.4, 566.0)">r</text><text xml:space="preserve" font-family="Helvetica-Light" font-size="112.0" fill="#FEFFFF" transform="matrix(1.00, 0.00, -0.00, -1.00, 1609.7, 566.0)">a</text><text xml:space="preserve" font-family="Helvetica-Light" font-size="112.0" fill="#FEFFFF" transform="matrix(1.00, 0.00, -0.00, -1.00, 1671.9, 566.0)">c</text><text xml:space="preserve" font-family="Helvetica-Light" font-size="112.0" fill="#FEFFFF" transform="matrix(1.00, 0.00, -0.00, -1.00, 1734.2, 566.0)">t</text><text xml:space="preserve" font-family="Helvetica-Light" font-size="112.0" fill="#FEFFFF" transform="matrix(1.00, 0.00, -0.00, -1.00, 1765.3, 566.0)"> </text><text xml:space="preserve" font-family="Helvetica-Light" font-size="112.0" fill="#FEFFFF" transform="matrix(1.00, 0.00, -0.00, -1.00, 257.0, 432.0)">w</text><text xml:space="preserve" font-family="Helvetica-Light" font-size="112.0" fill="#FEFFFF" transform="matrix(1.00, 0.00, -0.00, -1.00, 337.9, 432.0)">i</text><text xml:space="preserve" font-family="Helvetica-Light" font-size="112.0" fill="#FEFFFF" transform="matrix(1.00, 0.00, -0.00, -1.00, 362.7, 432.0)">t</text><text xml:space="preserve" font-family="Helvetica-Light" font-size="112.0" fill="#FEFFFF" transform="matrix(1.00, 0.00, -0.00, -1.00, 393.9, 432.0)">h</text><text xml:space="preserve" font-family="Helvetica-Light" font-size="112.0" fill="#FEFFFF" transform="matrix(1.00, 0.00, -0.00, -1.00, 456.1, 432.0)"> </text><text xml:space="preserve" font-family="Helvetica-Light" font-size="112.0" fill="#FEFFFF" transform="matrix(1.00, 0.00, -0.00, -1.00, 487.3, 432.0)">e</text><text xml:space="preserve" font-family="Helvetica-Light" font-size="112.0" fill="#FEFFFF" transform="matrix(1.00, 0.00, -0.00, -1.00, 549.5, 432.0)">a</text><text xml:space="preserve" font-family="Helvetica-Light" font-size="112.0" fill="#FEFFFF" transform="matrix(1.00, 0.00, -0.00, -1.00, 611.8, 432.0)">c</text><text xml:space="preserve" font-family="Helvetica-Light" font-size="112.0" fill="#FEFFFF" transform="matrix(1.00, 0.00, -0.00, -1.00, 674.1, 432.0)">h</text><text xml:space="preserve" font-family="Helvetica-Light" font-size="112.0" fill="#FEFFFF" transform="matrix(1.00, 0.00, -0.00, -1.00, 736.4, 432.0)"> </text><text xml:space="preserve" font-family="Helvetica-Light" font-size="112.0" fill="#FEFFFF" transform="matrix(1.00, 0.00, -0.00, -1.00, 767.5, 432.0)">o</text><text xml:space="preserve" font-family="Helvetica-Light" font-size="112.0" fill="#FEFFFF" transform="matrix(1.00, 0.00, -0.00, -1.00, 829.8, 432.0)">t</text><text xml:space="preserve" font-family="Helvetica-Light" font-size="112.0" fill="#FEFFFF" transform="matrix(1.00, 0.00, -0.00, -1.00, 860.9, 432.0)">h</text><text xml:space="preserve" font-family="Helvetica-Light" font-size="112.0" fill="#FEFFFF" transform="matrix(1.00, 0.00, -0.00, -1.00, 923.2, 432.0)">e</text><text xml:space="preserve" font-family="Helvetica-Light" font-size="112.0" fill="#FEFFFF" transform="matrix(1.00, 0.00, -0.00, -1.00, 985.4, 432.0)">r</text><text xml:space="preserve" font-family="Helvetica-Light" font-size="112.0" fill="#FEFFFF" transform="matrix(1.00, 0.00, -0.00, -1.00, 1022.7, 432.0)"> </text><text xml:space="preserve" font-family="Helvetica-Light" font-size="112.0" fill="#FEFFFF" transform="matrix(1.00, 0.00, -0.00, -1.00, 1053.9, 432.0)">i</text><text xml:space="preserve" font-family="Helvetica-Light" font-size="112.0" fill="#FEFFFF" transform="matrix(1.00, 0.00, -0.00, -1.00, 1078.7, 432.0)">n</text><text xml:space="preserve" font-family="Helvetica-Light" font-size="112.0" fill="#FEFFFF" transform="matrix(1.00, 0.00, -0.00, -1.00, 1141.0, 432.0)"> </text><text xml:space="preserve" font-family="Helvetica-Light" font-size="112.0" fill="#FEFFFF" transform="matrix(1.00, 0.00, -0.00, -1.00, 1172.2, 432.0)">n</text><text xml:space="preserve" font-family="Helvetica-Light" font-size="112.0" fill="#FEFFFF" transform="matrix(1.00, 0.00, -0.00, -1.00, 1234.4, 432.0)">e</text><text xml:space="preserve" font-family="Helvetica-Light" font-size="112.0" fill="#FEFFFF" transform="matrix(1.00, 0.00, -0.00, -1.00, 1296.7, 432.0)">w</text><text xml:space="preserve" font-family="Helvetica-Light" font-size="112.0" fill="#FEFFFF" transform="matrix(1.00, 0.00, -0.00, -1.00, 1377.6, 432.0)"> </text><text xml:space="preserve" font-family="Helvetica-Light" font-size="112.0" fill="#FEFFFF" transform="matrix(1.00, 0.00, -0.00, -1.00, 1408.7, 432.0)">w</text><text xml:space="preserve" font-family="Helvetica-Light" font-size="112.0" fill="#FEFFFF" transform="matrix(1.00, 0.00, -0.00, -1.00, 1489.6, 432.0)">a</text><text xml:space="preserve" font-family="Helvetica-Light" font-size="112.0" fill="#FEFFFF" transform="matrix(1.00, 0.00, -0.00, -1.00, 1551.8, 432.0)">y</text><text xml:space="preserve" font-family="Helvetica-Light" font-size="112.0" fill="#FEFFFF" transform="matrix(1.00, 0.00, -0.00, -1.00, 1607.8, 432.0)">s</text></g></svg>