<?xml version="1.0" encoding="UTF-8" standalone="no"?><svg xmlns="http://www.w3.org/2000/svg" xmlns:xlink="http://www.w3.org/1999/xlink" clip-rule="evenodd" stroke-miterlimit="4.00" viewBox="0 0 1920 1080"><desc>SVG generated by Keynote</desc><defs><radialGradient id="gradSh1.6" cx="0.0" cy="0.0" r="100.0" fx="0.0" fy="0.0" gradientUnits="userSpaceOnUse" gradientTransform="matrix(9.61, -5.41, -5.41, -9.61, 960.0, 540.0)"><stop offset="0.00000" stop-color="#EC88E7"></stop><stop offset="0.00147" stop-color="#EB88E7"></stop><stop offset="0.29032" stop-color="#DB7FE5"></stop><stop offset="0.30205" stop-color="#DA7FE5"></stop><stop offset="1.00000" stop-color="#B36AE2"></stop></radialGradient></defs><g transform="matrix(1.00, 0.00, -0.00, -1.00, 0.0, 1080.0)"><g><clipPath id="clip-5540"><path d="M 0.0 1080.0 L 1920.0 1080.0 L 1920.0 0.0 L 0.0 0.0 Z M 0.0 1080.0 "></path></clipPath><g clip-path="url(#clip-5540)"><path d="M 0.0 1080.0 L 1920.0 1080.0 L 1920.0 0.0 L 0.0 0.0 Z M 0.0 1080.0 " fill="url(#gradSh1.6)"></path></g></g><text xml:space="preserve" font-family="Helvetica" font-size="200.0" fill="#FEFFFF" transform="matrix(1.00, 0.00, -0.00, -1.00, 610.0, 466.0)">i</text><text xml:space="preserve" font-family="Helvetica" font-size="200.0" fill="#FEFFFF" transform="matrix(1.00, 0.00, -0.00, -1.00, 654.5, 466.0)">m</text><text xml:space="preserve" font-family="Helvetica" font-size="200.0" fill="#FEFFFF" transform="matrix(1.00, 0.00, -0.00, -1.00, 821.1, 466.0)">a</text><text xml:space="preserve" font-family="Helvetica" font-size="200.0" fill="#FEFFFF" transform="matrix(1.00, 0.00, -0.00, -1.00, 932.3, 466.0)">g</text><text xml:space="preserve" font-family="Helvetica" font-size="200.0" fill="#FEFFFF" transform="matrix(1.00, 0.00, -0.00, -1.00, 1043.6, 466.0)">i</text><text xml:space="preserve" font-family="Helvetica" font-size="200.0" fill="#FEFFFF" transform="matrix(1.00, 0.00, -0.00, -1.00, 1088.1, 466.0)">n</text><text xml:space="preserve" font-family="Helvetica" font-size="200.0" fill="#FEFFFF" transform="matrix(1.00, 0.00, -0.00, -1.00, 1199.4, 466.0)">e</text></g></svg>