<?xml version="1.0" encoding="UTF-8" standalone="no"?><svg xmlns="http://www.w3.org/2000/svg" xmlns:xlink="http://www.w3.org/1999/xlink" clip-rule="evenodd" stroke-miterlimit="4.00" viewBox="0 0 1920 1080"><desc>SVG generated by Keynote</desc><defs></defs><g transform="matrix(1.00, 0.00, -0.00, -1.00, 0.0, 1080.0)"><path d="M 0.0 1080.0 L 1920.0 1080.0 L 1920.0 0.0 L 0.0 0.0 Z M 0.0 1080.0 " fill="#000000"></path><text xml:space="preserve" font-family="Helvetica-Light" font-size="104.2" fill="#FEFFFF" transform="matrix(1.00, 0.00, -0.00, -1.00, 145.0, 564.0)">W</text><text xml:space="preserve" font-family="Helvetica-Light" font-size="104.2" fill="#FEFFFF" transform="matrix(1.00, 0.00, -0.00, -1.00, 235.7, 564.0)">e</text><text xml:space="preserve" font-family="Helvetica-Light" font-size="104.2" fill="#FEFFFF" transform="matrix(1.00, 0.00, -0.00, -1.00, 293.6, 564.0)"> </text><text xml:space="preserve" font-family="Helvetica-Light" font-size="104.2" fill="#FEFFFF" transform="matrix(1.00, 0.00, -0.00, -1.00, 322.6, 564.0)">h</text><text xml:space="preserve" font-family="Helvetica-Light" font-size="104.2" fill="#FEFFFF" transform="matrix(1.00, 0.00, -0.00, -1.00, 380.5, 564.0)">a</text><text xml:space="preserve" font-family="Helvetica-Light" font-size="104.2" fill="#FEFFFF" transform="matrix(1.00, 0.00, -0.00, -1.00, 438.4, 564.0)">v</text><text xml:space="preserve" font-family="Helvetica-Light" font-size="104.2" fill="#FEFFFF" transform="matrix(1.00, 0.00, -0.00, -1.00, 490.5, 564.0)">e</text><text xml:space="preserve" font-family="Helvetica-Light" font-size="104.2" fill="#FEFFFF" transform="matrix(1.00, 0.00, -0.00, -1.00, 548.4, 564.0)"> </text><text xml:space="preserve" font-family="Helvetica-Light" font-size="104.2" fill="#FEFFFF" transform="matrix(1.00, 0.00, -0.00, -1.00, 577.4, 564.0)">t</text><text xml:space="preserve" font-family="Helvetica-Light" font-size="104.2" fill="#FEFFFF" transform="matrix(1.00, 0.00, -0.00, -1.00, 606.3, 564.0)">h</text><text xml:space="preserve" font-family="Helvetica-Light" font-size="104.2" fill="#FEFFFF" transform="matrix(1.00, 0.00, -0.00, -1.00, 664.2, 564.0)">e</text><text xml:space="preserve" font-family="Helvetica-Light" font-size="104.2" fill="#FEFFFF" transform="matrix(1.00, 0.00, -0.00, -1.00, 722.2, 564.0)"> </text><text xml:space="preserve" font-family="Helvetica-Light" font-size="104.2" fill="#FEFFFF" transform="matrix(1.00, 0.00, -0.00, -1.00, 751.1, 564.0)">c</text><text xml:space="preserve" font-family="Helvetica-Light" font-size="104.2" fill="#FEFFFF" transform="matrix(1.00, 0.00, -0.00, -1.00, 809.0, 564.0)">h</text><text xml:space="preserve" font-family="Helvetica-Light" font-size="104.2" fill="#FEFFFF" transform="matrix(1.00, 0.00, -0.00, -1.00, 866.9, 564.0)">a</text><text xml:space="preserve" font-family="Helvetica-Light" font-size="104.2" fill="#FEFFFF" transform="matrix(1.00, 0.00, -0.00, -1.00, 924.8, 564.0)">n</text><text xml:space="preserve" font-family="Helvetica-Light" font-size="104.2" fill="#FEFFFF" transform="matrix(1.00, 0.00, -0.00, -1.00, 982.8, 564.0)">c</text><text xml:space="preserve" font-family="Helvetica-Light" font-size="104.2" fill="#FEFFFF" transform="matrix(1.00, 0.00, -0.00, -1.00, 1040.7, 564.0)">e</text><text xml:space="preserve" font-family="Helvetica-Light" font-size="104.2" fill="#FEFFFF" transform="matrix(1.00, 0.00, -0.00, -1.00, 1098.6, 564.0)"> </text><text xml:space="preserve" font-family="Helvetica-Light" font-size="104.2" fill="#FEFFFF" transform="matrix(1.00, 0.00, -0.00, -1.00, 1127.5, 564.0)">t</text><text xml:space="preserve" font-family="Helvetica-Light" font-size="104.2" fill="#FEFFFF" transform="matrix(1.00, 0.00, -0.00, -1.00, 1156.5, 564.0)">o</text><text xml:space="preserve" font-family="Helvetica-Light" font-size="104.2" fill="#FEFFFF" transform="matrix(1.00, 0.00, -0.00, -1.00, 1214.4, 564.0)"> </text><text xml:space="preserve" font-family="Helvetica-Light" font-size="104.2" fill="#FEFFFF" transform="matrix(1.00, 0.00, -0.00, -1.00, 1243.4, 564.0)">u</text><text xml:space="preserve" font-family="Helvetica-Light" font-size="104.2" fill="#FEFFFF" transform="matrix(1.00, 0.00, -0.00, -1.00, 1301.3, 564.0)">n</text><text xml:space="preserve" font-family="Helvetica-Light" font-size="104.2" fill="#FEFFFF" transform="matrix(1.00, 0.00, -0.00, -1.00, 1359.2, 564.0)">d</text><text xml:space="preserve" font-family="Helvetica-Light" font-size="104.2" fill="#FEFFFF" transform="matrix(1.00, 0.00, -0.00, -1.00, 1422.8, 564.0)">e</text><text xml:space="preserve" font-family="Helvetica-Light" font-size="104.2" fill="#FEFFFF" transform="matrix(1.00, 0.00, -0.00, -1.00, 1480.7, 564.0)">r</text><text xml:space="preserve" font-family="Helvetica-Light" font-size="104.2" fill="#FEFFFF" transform="matrix(1.00, 0.00, -0.00, -1.00, 1515.4, 564.0)">s</text><text xml:space="preserve" font-family="Helvetica-Light" font-size="104.2" fill="#FEFFFF" transform="matrix(1.00, 0.00, -0.00, -1.00, 1567.5, 564.0)">t</text><text xml:space="preserve" font-family="Helvetica-Light" font-size="104.2" fill="#FEFFFF" transform="matrix(1.00, 0.00, -0.00, -1.00, 1596.5, 564.0)">a</text><text xml:space="preserve" font-family="Helvetica-Light" font-size="104.2" fill="#FEFFFF" transform="matrix(1.00, 0.00, -0.00, -1.00, 1654.4, 564.0)">n</text><text xml:space="preserve" font-family="Helvetica-Light" font-size="104.2" fill="#FEFFFF" transform="matrix(1.00, 0.00, -0.00, -1.00, 1712.3, 564.0)">d</text><text xml:space="preserve" font-family="Helvetica-Light" font-size="104.2" fill="#FEFFFF" transform="matrix(1.00, 0.00, -0.00, -1.00, 1775.9, 564.0)"> </text><text xml:space="preserve" font-family="Helvetica-Light" font-size="104.2" fill="#FEFFFF" transform="matrix(1.00, 0.00, -0.00, -1.00, 232.0, 439.0)">e</text><text xml:space="preserve" font-family="Helvetica-Light" font-size="104.2" fill="#FEFFFF" transform="matrix(1.00, 0.00, -0.00, -1.00, 289.9, 439.0)">a</text><text xml:space="preserve" font-family="Helvetica-Light" font-size="104.2" fill="#FEFFFF" transform="matrix(1.00, 0.00, -0.00, -1.00, 347.8, 439.0)">c</text><text xml:space="preserve" font-family="Helvetica-Light" font-size="104.2" fill="#FEFFFF" transform="matrix(1.00, 0.00, -0.00, -1.00, 405.7, 439.0)">h</text><text xml:space="preserve" font-family="Helvetica-Light" font-size="104.2" fill="#FEFFFF" transform="matrix(1.00, 0.00, -0.00, -1.00, 463.7, 439.0)"> </text><text xml:space="preserve" font-family="Helvetica-Light" font-size="104.2" fill="#FEFFFF" transform="matrix(1.00, 0.00, -0.00, -1.00, 492.6, 439.0)">o</text><text xml:space="preserve" font-family="Helvetica-Light" font-size="104.2" fill="#FEFFFF" transform="matrix(1.00, 0.00, -0.00, -1.00, 550.5, 439.0)">t</text><text xml:space="preserve" font-family="Helvetica-Light" font-size="104.2" fill="#FEFFFF" transform="matrix(1.00, 0.00, -0.00, -1.00, 579.5, 439.0)">h</text><text xml:space="preserve" font-family="Helvetica-Light" font-size="104.2" fill="#FEFFFF" transform="matrix(1.00, 0.00, -0.00, -1.00, 637.4, 439.0)">e</text><text xml:space="preserve" font-family="Helvetica-Light" font-size="104.2" fill="#FEFFFF" transform="matrix(1.00, 0.00, -0.00, -1.00, 695.3, 439.0)">r</text><text xml:space="preserve" font-family="Helvetica-Light" font-size="104.2" fill="#FEFFFF" transform="matrix(1.00, 0.00, -0.00, -1.00, 730.0, 439.0)"> </text><text xml:space="preserve" font-family="Helvetica-Light" font-size="104.2" fill="#FEFFFF" transform="matrix(1.00, 0.00, -0.00, -1.00, 758.9, 439.0)">i</text><text xml:space="preserve" font-family="Helvetica-Light" font-size="104.2" fill="#FEFFFF" transform="matrix(1.00, 0.00, -0.00, -1.00, 782.1, 439.0)">n</text><text xml:space="preserve" font-family="Helvetica-Light" font-size="104.2" fill="#FEFFFF" transform="matrix(1.00, 0.00, -0.00, -1.00, 840.0, 439.0)"> </text><text xml:space="preserve" font-family="Helvetica-Light" font-size="104.2" fill="#FEFFFF" transform="matrix(1.00, 0.00, -0.00, -1.00, 868.9, 439.0)">e</text><text xml:space="preserve" font-family="Helvetica-Light" font-size="104.2" fill="#FEFFFF" transform="matrix(1.00, 0.00, -0.00, -1.00, 926.9, 439.0)">n</text><text xml:space="preserve" font-family="Helvetica-Light" font-size="104.2" fill="#FEFFFF" transform="matrix(1.00, 0.00, -0.00, -1.00, 984.8, 439.0)">t</text><text xml:space="preserve" font-family="Helvetica-Light" font-size="104.2" fill="#FEFFFF" transform="matrix(1.00, 0.00, -0.00, -1.00, 1013.7, 439.0)">i</text><text xml:space="preserve" font-family="Helvetica-Light" font-size="104.2" fill="#FEFFFF" transform="matrix(1.00, 0.00, -0.00, -1.00, 1036.8, 439.0)">r</text><text xml:space="preserve" font-family="Helvetica-Light" font-size="104.2" fill="#FEFFFF" transform="matrix(1.00, 0.00, -0.00, -1.00, 1069.7, 439.0)">e</text><text xml:space="preserve" font-family="Helvetica-Light" font-size="104.2" fill="#FEFFFF" transform="matrix(1.00, 0.00, -0.00, -1.00, 1127.6, 439.0)">l</text><text xml:space="preserve" font-family="Helvetica-Light" font-size="104.2" fill="#FEFFFF" transform="matrix(1.00, 0.00, -0.00, -1.00, 1150.7, 439.0)">y</text><text xml:space="preserve" font-family="Helvetica-Light" font-size="104.2" fill="#FEFFFF" transform="matrix(1.00, 0.00, -0.00, -1.00, 1202.8, 439.0)"> </text><text xml:space="preserve" font-family="Helvetica-Light" font-size="104.2" fill="#FEFFFF" transform="matrix(1.00, 0.00, -0.00, -1.00, 1231.7, 439.0)">n</text><text xml:space="preserve" font-family="Helvetica-Light" font-size="104.2" fill="#FEFFFF" transform="matrix(1.00, 0.00, -0.00, -1.00, 1289.6, 439.0)">e</text><text xml:space="preserve" font-family="Helvetica-Light" font-size="104.2" fill="#FEFFFF" transform="matrix(1.00, 0.00, -0.00, -1.00, 1347.6, 439.0)">w</text><text xml:space="preserve" font-family="Helvetica-Light" font-size="104.2" fill="#FEFFFF" transform="matrix(1.00, 0.00, -0.00, -1.00, 1422.8, 439.0)"> </text><text xml:space="preserve" font-family="Helvetica-Light" font-size="104.2" fill="#FEFFFF" transform="matrix(1.00, 0.00, -0.00, -1.00, 1451.7, 439.0)">w</text><text xml:space="preserve" font-family="Helvetica-Light" font-size="104.2" fill="#FEFFFF" transform="matrix(1.00, 0.00, -0.00, -1.00, 1526.9, 439.0)">a</text><text xml:space="preserve" font-family="Helvetica-Light" font-size="104.2" fill="#FEFFFF" transform="matrix(1.00, 0.00, -0.00, -1.00, 1584.8, 439.0)">y</text><text xml:space="preserve" font-family="Helvetica-Light" font-size="104.2" fill="#FEFFFF" transform="matrix(1.00, 0.00, -0.00, -1.00, 1636.9, 439.0)">s</text></g></svg>