<?xml version="1.0" encoding="UTF-8" standalone="no"?><svg xmlns="http://www.w3.org/2000/svg" xmlns:xlink="http://www.w3.org/1999/xlink" clip-rule="evenodd" stroke-miterlimit="4.00" viewBox="0 0 714 240"><desc>SVG generated by Keynote</desc><defs></defs><g transform="matrix(1.00, 0.00, -0.00, -1.00, 0.0, 240.0)"><image xlink:href="7015C14F006518884F0A99DA8C218651.png" width="708.00" height="66.00" transform="matrix(1.00, 0.00, -0.00, -1.00, 1.0, 239.0)"></image><text xml:space="preserve" font-family="Helvetica-Bold" font-weight="bold" font-size="72.0" fill="#FEFFFF" transform="matrix(1.00, 0.00, -0.00, -1.00, 4.0, 182.0)">G</text><text xml:space="preserve" font-family="Helvetica-Bold" font-weight="bold" font-size="72.0" fill="#FEFFFF" transform="matrix(1.00, 0.00, -0.00, -1.00, 63.6, 182.0)">O</text><text xml:space="preserve" font-family="Helvetica-Bold" font-weight="bold" font-size="72.0" fill="#FEFFFF" transform="matrix(1.00, 0.00, -0.00, -1.00, 123.2, 182.0)">T</text><text xml:space="preserve" font-family="Helvetica-Bold" font-weight="bold" font-size="72.0" fill="#FEFFFF" transform="matrix(1.00, 0.00, -0.00, -1.00, 170.7, 182.0)">T</text><text xml:space="preserve" font-family="Helvetica-Bold" font-weight="bold" font-size="72.0" fill="#FEFFFF" transform="matrix(1.00, 0.00, -0.00, -1.00, 213.0, 182.0)">A</text><text xml:space="preserve" font-family="Helvetica-Bold" font-weight="bold" font-size="72.0" fill="#FEFFFF" transform="matrix(1.00, 0.00, -0.00, -1.00, 266.0, 182.0)"> </text><text xml:space="preserve" font-family="Helvetica-Bold" font-weight="bold" font-size="72.0" fill="#FEFFFF" transform="matrix(1.00, 0.00, -0.00, -1.00, 289.6, 182.0)">M</text><text xml:space="preserve" font-family="Helvetica-Bold" font-weight="bold" font-size="72.0" fill="#FEFFFF" transform="matrix(1.00, 0.00, -0.00, -1.00, 353.1, 182.0)">A</text><text xml:space="preserve" font-family="Helvetica-Bold" font-weight="bold" font-size="72.0" fill="#FEFFFF" transform="matrix(1.00, 0.00, -0.00, -1.00, 408.7, 182.0)">K</text><text xml:space="preserve" font-family="Helvetica-Bold" font-weight="bold" font-size="72.0" fill="#FEFFFF" transform="matrix(1.00, 0.00, -0.00, -1.00, 464.3, 182.0)">E</text><text xml:space="preserve" font-family="Helvetica-Bold" font-weight="bold" font-size="72.0" fill="#FEFFFF" transform="matrix(1.00, 0.00, -0.00, -1.00, 515.9, 182.0)"> </text><text xml:space="preserve" font-family="Helvetica-Bold" font-weight="bold" font-size="72.0" fill="#FEFFFF" transform="matrix(1.00, 0.00, -0.00, -1.00, 539.5, 182.0)">W</text><text xml:space="preserve" font-family="Helvetica-Bold" font-weight="bold" font-size="72.0" fill="#FEFFFF" transform="matrix(1.00, 0.00, -0.00, -1.00, 607.1, 182.0)">A</text><text xml:space="preserve" font-family="Helvetica-Bold" font-weight="bold" font-size="72.0" fill="#FEFFFF" transform="matrix(1.00, 0.00, -0.00, -1.00, 656.1, 182.0)">Y</text><text xml:space="preserve" font-family="Helvetica-Bold" font-weight="bold" font-size="72.0" fill="#FEFFFF" transform="matrix(1.00, 0.00, -0.00, -1.00, 706.5, 182.0)"> </text><image xlink:href="1181AA4BB243FAF30D073F9283DCC0E6.png" width="602.00" height="66.00" transform="matrix(1.00, 0.00, -0.00, -1.00, 54.0, 153.0)"></image><text xml:space="preserve" font-family="Helvetica-Bold" font-weight="bold" font-size="72.0" fill="#FEFFFF" transform="matrix(1.00, 0.00, -0.00, -1.00, 54.0, 96.0)">F</text><text xml:space="preserve" font-family="Helvetica-Bold" font-weight="bold" font-size="72.0" fill="#FEFFFF" transform="matrix(1.00, 0.00, -0.00, -1.00, 101.6, 96.0)">O</text><text xml:space="preserve" font-family="Helvetica-Bold" font-weight="bold" font-size="72.0" fill="#FEFFFF" transform="matrix(1.00, 0.00, -0.00, -1.00, 161.2, 96.0)">R</text><text xml:space="preserve" font-family="Helvetica-Bold" font-weight="bold" font-size="72.0" fill="#FEFFFF" transform="matrix(1.00, 0.00, -0.00, -1.00, 216.7, 96.0)"> </text><text xml:space="preserve" font-family="Helvetica-Bold" font-weight="bold" font-size="72.0" fill="#FEFFFF" transform="matrix(1.00, 0.00, -0.00, -1.00, 240.3, 96.0)">T</text><text xml:space="preserve" font-family="Helvetica-Bold" font-weight="bold" font-size="72.0" fill="#FEFFFF" transform="matrix(1.00, 0.00, -0.00, -1.00, 287.9, 96.0)">H</text><text xml:space="preserve" font-family="Helvetica-Bold" font-weight="bold" font-size="72.0" fill="#FEFFFF" transform="matrix(1.00, 0.00, -0.00, -1.00, 343.5, 96.0)">E</text><text xml:space="preserve" font-family="Helvetica-Bold" font-weight="bold" font-size="72.0" fill="#FEFFFF" transform="matrix(1.00, 0.00, -0.00, -1.00, 395.1, 96.0)"> </text><text xml:space="preserve" font-family="Helvetica-Bold" font-weight="bold" font-size="72.0" fill="#FEFFFF" transform="matrix(1.00, 0.00, -0.00, -1.00, 418.7, 96.0)">H</text><text xml:space="preserve" font-family="Helvetica-Bold" font-weight="bold" font-size="72.0" fill="#FEFFFF" transform="matrix(1.00, 0.00, -0.00, -1.00, 474.3, 96.0)">O</text><text xml:space="preserve" font-family="Helvetica-Bold" font-weight="bold" font-size="72.0" fill="#FEFFFF" transform="matrix(1.00, 0.00, -0.00, -1.00, 533.8, 96.0)">M</text><text xml:space="preserve" font-family="Helvetica-Bold" font-weight="bold" font-size="72.0" fill="#FEFFFF" transform="matrix(1.00, 0.00, -0.00, -1.00, 597.4, 96.0)">O</text><text xml:space="preserve" font-family="Helvetica-Bold" font-weight="bold" font-size="72.0" fill="#FEFFFF" transform="matrix(1.00, 0.00, -0.00, -1.00, 657.0, 96.0)"> </text><image xlink:href="9FB7802124DE0B212F00BF2C7E336209.png" width="407.00" height="66.00" transform="matrix(1.00, 0.00, -0.00, -1.00, 150.0, 67.0)"></image><text xml:space="preserve" font-family="Helvetica-Bold" font-weight="bold" font-size="72.0" fill="#FEFFFF" transform="matrix(1.00, 0.00, -0.00, -1.00, 153.0, 10.0)">S</text><text xml:space="preserve" font-family="Helvetica-Bold" font-weight="bold" font-size="72.0" fill="#FEFFFF" transform="matrix(1.00, 0.00, -0.00, -1.00, 204.6, 10.0)">U</text><text xml:space="preserve" font-family="Helvetica-Bold" font-weight="bold" font-size="72.0" fill="#FEFFFF" transform="matrix(1.00, 0.00, -0.00, -1.00, 260.2, 10.0)">P</text><text xml:space="preserve" font-family="Helvetica-Bold" font-weight="bold" font-size="72.0" fill="#FEFFFF" transform="matrix(1.00, 0.00, -0.00, -1.00, 311.8, 10.0)">E</text><text xml:space="preserve" font-family="Helvetica-Bold" font-weight="bold" font-size="72.0" fill="#FEFFFF" transform="matrix(1.00, 0.00, -0.00, -1.00, 363.5, 10.0)">R</text><text xml:space="preserve" font-family="Helvetica-Bold" font-weight="bold" font-size="72.0" fill="#FEFFFF" transform="matrix(1.00, 0.00, -0.00, -1.00, 419.1, 10.0)">I</text><text xml:space="preserve" font-family="Helvetica-Bold" font-weight="bold" font-size="72.0" fill="#FEFFFF" transform="matrix(1.00, 0.00, -0.00, -1.00, 442.7, 10.0)">O</text><text xml:space="preserve" font-family="Helvetica-Bold" font-weight="bold" font-size="72.0" fill="#FEFFFF" transform="matrix(1.00, 0.00, -0.00, -1.00, 502.3, 10.0)">R</text></g></svg>