<?xml version="1.0" encoding="UTF-8" standalone="no"?><svg xmlns="http://www.w3.org/2000/svg" xmlns:xlink="http://www.w3.org/1999/xlink" clip-rule="evenodd" stroke-miterlimit="4.00" viewBox="0 0 1920 1080"><desc>SVG generated by Keynote</desc><defs></defs><g transform="matrix(1.00, 0.00, -0.00, -1.00, 0.0, 1080.0)"><path d="M 0.0 1080.0 L 1920.0 1080.0 L 1920.0 0.0 L 0.0 0.0 Z M 0.0 1080.0 " fill="#000000"></path><text xml:space="preserve" font-family="Helvetica-Light" font-size="99.7" fill="#FEFFFF" transform="matrix(1.00, 0.00, -0.00, -1.00, 250.0, 563.0)">H</text><text xml:space="preserve" font-family="Helvetica-Light" font-size="99.7" fill="#FEFFFF" transform="matrix(1.00, 0.00, -0.00, -1.00, 322.0, 563.0)">u</text><text xml:space="preserve" font-family="Helvetica-Light" font-size="99.7" fill="#FEFFFF" transform="matrix(1.00, 0.00, -0.00, -1.00, 377.4, 563.0)">m</text><text xml:space="preserve" font-family="Helvetica-Light" font-size="99.7" fill="#FEFFFF" transform="matrix(1.00, 0.00, -0.00, -1.00, 460.4, 563.0)">a</text><text xml:space="preserve" font-family="Helvetica-Light" font-size="99.7" fill="#FEFFFF" transform="matrix(1.00, 0.00, -0.00, -1.00, 515.8, 563.0)">n</text><text xml:space="preserve" font-family="Helvetica-Light" font-size="99.7" fill="#FEFFFF" transform="matrix(1.00, 0.00, -0.00, -1.00, 571.3, 563.0)">i</text><text xml:space="preserve" font-family="Helvetica-Light" font-size="99.7" fill="#FEFFFF" transform="matrix(1.00, 0.00, -0.00, -1.00, 593.4, 563.0)">t</text><text xml:space="preserve" font-family="Helvetica-Light" font-size="99.7" fill="#FEFFFF" transform="matrix(1.00, 0.00, -0.00, -1.00, 621.1, 563.0)">y</text><text xml:space="preserve" font-family="Helvetica-Light" font-size="99.7" fill="#FEFFFF" transform="matrix(1.00, 0.00, -0.00, -1.00, 670.9, 563.0)"> </text><text xml:space="preserve" font-family="Helvetica-Light" font-size="99.7" fill="#FEFFFF" transform="matrix(1.00, 0.00, -0.00, -1.00, 698.7, 563.0)">h</text><text xml:space="preserve" font-family="Helvetica-Light" font-size="99.7" fill="#FEFFFF" transform="matrix(1.00, 0.00, -0.00, -1.00, 754.1, 563.0)">a</text><text xml:space="preserve" font-family="Helvetica-Light" font-size="99.7" fill="#FEFFFF" transform="matrix(1.00, 0.00, -0.00, -1.00, 809.5, 563.0)">s</text><text xml:space="preserve" font-family="Helvetica-Light" font-size="99.7" fill="#FEFFFF" transform="matrix(1.00, 0.00, -0.00, -1.00, 859.3, 563.0)"> </text><text xml:space="preserve" font-family="Helvetica-Light" font-size="99.7" fill="#FEFFFF" transform="matrix(1.00, 0.00, -0.00, -1.00, 887.1, 563.0)">t</text><text xml:space="preserve" font-family="Helvetica-Light" font-size="99.7" fill="#FEFFFF" transform="matrix(1.00, 0.00, -0.00, -1.00, 914.8, 563.0)">h</text><text xml:space="preserve" font-family="Helvetica-Light" font-size="99.7" fill="#FEFFFF" transform="matrix(1.00, 0.00, -0.00, -1.00, 970.2, 563.0)">e</text><text xml:space="preserve" font-family="Helvetica-Light" font-size="99.7" fill="#FEFFFF" transform="matrix(1.00, 0.00, -0.00, -1.00, 1025.6, 563.0)"> </text><text xml:space="preserve" font-family="Helvetica-Light" font-size="99.7" fill="#FEFFFF" transform="matrix(1.00, 0.00, -0.00, -1.00, 1053.3, 563.0)">o</text><text xml:space="preserve" font-family="Helvetica-Light" font-size="99.7" fill="#FEFFFF" transform="matrix(1.00, 0.00, -0.00, -1.00, 1108.7, 563.0)">p</text><text xml:space="preserve" font-family="Helvetica-Light" font-size="99.7" fill="#FEFFFF" transform="matrix(1.00, 0.00, -0.00, -1.00, 1169.6, 563.0)">p</text><text xml:space="preserve" font-family="Helvetica-Light" font-size="99.7" fill="#FEFFFF" transform="matrix(1.00, 0.00, -0.00, -1.00, 1230.6, 563.0)">o</text><text xml:space="preserve" font-family="Helvetica-Light" font-size="99.7" fill="#FEFFFF" transform="matrix(1.00, 0.00, -0.00, -1.00, 1286.0, 563.0)">r</text><text xml:space="preserve" font-family="Helvetica-Light" font-size="99.7" fill="#FEFFFF" transform="matrix(1.00, 0.00, -0.00, -1.00, 1321.0, 563.0)">t</text><text xml:space="preserve" font-family="Helvetica-Light" font-size="99.7" fill="#FEFFFF" transform="matrix(1.00, 0.00, -0.00, -1.00, 1348.7, 563.0)">u</text><text xml:space="preserve" font-family="Helvetica-Light" font-size="99.7" fill="#FEFFFF" transform="matrix(1.00, 0.00, -0.00, -1.00, 1404.1, 563.0)">n</text><text xml:space="preserve" font-family="Helvetica-Light" font-size="99.7" fill="#FEFFFF" transform="matrix(1.00, 0.00, -0.00, -1.00, 1459.5, 563.0)">i</text><text xml:space="preserve" font-family="Helvetica-Light" font-size="99.7" fill="#FEFFFF" transform="matrix(1.00, 0.00, -0.00, -1.00, 1481.6, 563.0)">t</text><text xml:space="preserve" font-family="Helvetica-Light" font-size="99.7" fill="#FEFFFF" transform="matrix(1.00, 0.00, -0.00, -1.00, 1509.4, 563.0)">y</text><text xml:space="preserve" font-family="Helvetica-Light" font-size="99.7" fill="#FEFFFF" transform="matrix(1.00, 0.00, -0.00, -1.00, 1559.2, 563.0)"> </text><text xml:space="preserve" font-family="Helvetica-Light" font-size="99.7" fill="#FEFFFF" transform="matrix(1.00, 0.00, -0.00, -1.00, 1586.9, 563.0)">t</text><text xml:space="preserve" font-family="Helvetica-Light" font-size="99.7" fill="#FEFFFF" transform="matrix(1.00, 0.00, -0.00, -1.00, 1614.6, 563.0)">o</text><text xml:space="preserve" font-family="Helvetica-Light" font-size="99.7" fill="#FEFFFF" transform="matrix(1.00, 0.00, -0.00, -1.00, 1670.0, 563.0)"> </text><text xml:space="preserve" font-family="Helvetica-Light" font-size="99.7" fill="#FEFFFF" transform="matrix(1.00, 0.00, -0.00, -1.00, 151.0, 443.0)">l</text><text xml:space="preserve" font-family="Helvetica-Light" font-size="99.7" fill="#FEFFFF" transform="matrix(1.00, 0.00, -0.00, -1.00, 173.1, 443.0)">e</text><text xml:space="preserve" font-family="Helvetica-Light" font-size="99.7" fill="#FEFFFF" transform="matrix(1.00, 0.00, -0.00, -1.00, 228.6, 443.0)">v</text><text xml:space="preserve" font-family="Helvetica-Light" font-size="99.7" fill="#FEFFFF" transform="matrix(1.00, 0.00, -0.00, -1.00, 278.4, 443.0)">e</text><text xml:space="preserve" font-family="Helvetica-Light" font-size="99.7" fill="#FEFFFF" transform="matrix(1.00, 0.00, -0.00, -1.00, 333.8, 443.0)">l</text><text xml:space="preserve" font-family="Helvetica-Light" font-size="99.7" fill="#FEFFFF" transform="matrix(1.00, 0.00, -0.00, -1.00, 355.9, 443.0)"> </text><text xml:space="preserve" font-family="Helvetica-Light" font-size="99.7" fill="#FEFFFF" transform="matrix(1.00, 0.00, -0.00, -1.00, 383.7, 443.0)">u</text><text xml:space="preserve" font-family="Helvetica-Light" font-size="99.7" fill="#FEFFFF" transform="matrix(1.00, 0.00, -0.00, -1.00, 439.1, 443.0)">p</text><text xml:space="preserve" font-family="Helvetica-Light" font-size="99.7" fill="#FEFFFF" transform="matrix(1.00, 0.00, -0.00, -1.00, 500.0, 443.0)"> </text><text xml:space="preserve" font-family="Helvetica-Light" font-size="99.7" fill="#FEFFFF" transform="matrix(1.00, 0.00, -0.00, -1.00, 527.7, 443.0)">a</text><text xml:space="preserve" font-family="Helvetica-Light" font-size="99.7" fill="#FEFFFF" transform="matrix(1.00, 0.00, -0.00, -1.00, 583.1, 443.0)">n</text><text xml:space="preserve" font-family="Helvetica-Light" font-size="99.7" fill="#FEFFFF" transform="matrix(1.00, 0.00, -0.00, -1.00, 638.5, 443.0)">d</text><text xml:space="preserve" font-family="Helvetica-Light" font-size="99.7" fill="#FEFFFF" transform="matrix(1.00, 0.00, -0.00, -1.00, 699.4, 443.0)"> </text><text xml:space="preserve" font-family="Helvetica-Light" font-size="99.7" fill="#FEFFFF" transform="matrix(1.00, 0.00, -0.00, -1.00, 727.2, 443.0)">g</text><text xml:space="preserve" font-family="Helvetica-Light" font-size="99.7" fill="#FEFFFF" transform="matrix(1.00, 0.00, -0.00, -1.00, 788.1, 443.0)">a</text><text xml:space="preserve" font-family="Helvetica-Light" font-size="99.7" fill="#FEFFFF" transform="matrix(1.00, 0.00, -0.00, -1.00, 843.5, 443.0)">i</text><text xml:space="preserve" font-family="Helvetica-Light" font-size="99.7" fill="#FEFFFF" transform="matrix(1.00, 0.00, -0.00, -1.00, 865.6, 443.0)">n</text><text xml:space="preserve" font-family="Helvetica-Light" font-size="99.7" fill="#FEFFFF" transform="matrix(1.00, 0.00, -0.00, -1.00, 921.0, 443.0)"> </text><text xml:space="preserve" font-family="Helvetica-Light" font-size="99.7" fill="#FEFFFF" transform="matrix(1.00, 0.00, -0.00, -1.00, 948.7, 443.0)">n</text><text xml:space="preserve" font-family="Helvetica-Light" font-size="99.7" fill="#FEFFFF" transform="matrix(1.00, 0.00, -0.00, -1.00, 1004.2, 443.0)">e</text><text xml:space="preserve" font-family="Helvetica-Light" font-size="99.7" fill="#FEFFFF" transform="matrix(1.00, 0.00, -0.00, -1.00, 1059.6, 443.0)">w</text><text xml:space="preserve" font-family="Helvetica-Light" font-size="99.7" fill="#FEFFFF" transform="matrix(1.00, 0.00, -0.00, -1.00, 1131.6, 443.0)"> </text><text xml:space="preserve" font-family="Helvetica-Light" font-size="99.7" fill="#FEFFFF" transform="matrix(1.00, 0.00, -0.00, -1.00, 1159.3, 443.0)">s</text><text xml:space="preserve" font-family="Helvetica-Light" font-size="99.7" fill="#FEFFFF" transform="matrix(1.00, 0.00, -0.00, -1.00, 1209.1, 443.0)">u</text><text xml:space="preserve" font-family="Helvetica-Light" font-size="99.7" fill="#FEFFFF" transform="matrix(1.00, 0.00, -0.00, -1.00, 1264.5, 443.0)">p</text><text xml:space="preserve" font-family="Helvetica-Light" font-size="99.7" fill="#FEFFFF" transform="matrix(1.00, 0.00, -0.00, -1.00, 1325.4, 443.0)">e</text><text xml:space="preserve" font-family="Helvetica-Light" font-size="99.7" fill="#FEFFFF" transform="matrix(1.00, 0.00, -0.00, -1.00, 1380.9, 443.0)">r</text><text xml:space="preserve" font-family="Helvetica-Light" font-size="99.7" fill="#FEFFFF" transform="matrix(1.00, 0.00, -0.00, -1.00, 1414.0, 443.0)"> </text><text xml:space="preserve" font-family="Helvetica-Light" font-size="99.7" fill="#FEFFFF" transform="matrix(1.00, 0.00, -0.00, -1.00, 1441.8, 443.0)">p</text><text xml:space="preserve" font-family="Helvetica-Light" font-size="99.7" fill="#FEFFFF" transform="matrix(1.00, 0.00, -0.00, -1.00, 1502.7, 443.0)">o</text><text xml:space="preserve" font-family="Helvetica-Light" font-size="99.7" fill="#FEFFFF" transform="matrix(1.00, 0.00, -0.00, -1.00, 1558.1, 443.0)">w</text><text xml:space="preserve" font-family="Helvetica-Light" font-size="99.7" fill="#FEFFFF" transform="matrix(1.00, 0.00, -0.00, -1.00, 1630.1, 443.0)">e</text><text xml:space="preserve" font-family="Helvetica-Light" font-size="99.7" fill="#FEFFFF" transform="matrix(1.00, 0.00, -0.00, -1.00, 1685.5, 443.0)">r</text><text xml:space="preserve" font-family="Helvetica-Light" font-size="99.7" fill="#FEFFFF" transform="matrix(1.00, 0.00, -0.00, -1.00, 1718.7, 443.0)">s</text></g></svg>