<?xml version="1.0" encoding="UTF-8" standalone="no"?><svg xmlns="http://www.w3.org/2000/svg" xmlns:xlink="http://www.w3.org/1999/xlink" clip-rule="evenodd" stroke-miterlimit="4.00" viewBox="0 0 1920 1080"><desc>SVG generated by Keynote</desc><defs></defs><g transform="matrix(1.00, 0.00, -0.00, -1.00, 0.0, 1080.0)"><path d="M 0.0 1080.0 L 1920.0 1080.0 L 1920.0 0.0 L 0.0 0.0 Z M 0.0 1080.0 " fill="#FEFFFE"></path><text xml:space="preserve" font-family="Helvetica-Bold" font-weight="bold" font-size="112.0" fill="#000000" transform="matrix(1.00, 0.00, -0.00, -1.00, 400.0, 499.0)">I</text><text xml:space="preserve" font-family="Helvetica-Bold" font-weight="bold" font-size="112.0" fill="#000000" transform="matrix(1.00, 0.00, -0.00, -1.00, 431.1, 499.0)">f</text><text xml:space="preserve" font-family="Helvetica-Bold" font-weight="bold" font-size="112.0" fill="#000000" transform="matrix(1.00, 0.00, -0.00, -1.00, 468.4, 499.0)"> </text><text xml:space="preserve" font-family="Helvetica-Bold" font-weight="bold" font-size="112.0" fill="#000000" transform="matrix(1.00, 0.00, -0.00, -1.00, 499.5, 499.0)">w</text><text xml:space="preserve" font-family="Helvetica-Bold" font-weight="bold" font-size="112.0" fill="#000000" transform="matrix(1.00, 0.00, -0.00, -1.00, 586.6, 499.0)">e</text><text xml:space="preserve" font-family="Helvetica-Bold" font-weight="bold" font-size="112.0" fill="#000000" transform="matrix(1.00, 0.00, -0.00, -1.00, 648.9, 499.0)"> </text><text xml:space="preserve" font-family="Helvetica-Bold" font-weight="bold" font-size="112.0" fill="#000000" transform="matrix(1.00, 0.00, -0.00, -1.00, 680.0, 499.0)">a</text><text xml:space="preserve" font-family="Helvetica-Bold" font-weight="bold" font-size="112.0" fill="#000000" transform="matrix(1.00, 0.00, -0.00, -1.00, 742.3, 499.0)">r</text><text xml:space="preserve" font-family="Helvetica-Bold" font-weight="bold" font-size="112.0" fill="#000000" transform="matrix(1.00, 0.00, -0.00, -1.00, 785.9, 499.0)">e</text><text xml:space="preserve" font-family="Helvetica-Bold" font-weight="bold" font-size="112.0" fill="#000000" transform="matrix(1.00, 0.00, -0.00, -1.00, 848.2, 499.0)"> </text><text xml:space="preserve" font-family="Helvetica-Bold" font-weight="bold" font-size="112.0" fill="#000000" transform="matrix(1.00, 0.00, -0.00, -1.00, 879.3, 499.0)">t</text><text xml:space="preserve" font-family="Helvetica-Bold" font-weight="bold" font-size="112.0" fill="#000000" transform="matrix(1.00, 0.00, -0.00, -1.00, 916.6, 499.0)">o</text><text xml:space="preserve" font-family="Helvetica-Bold" font-weight="bold" font-size="112.0" fill="#000000" transform="matrix(1.00, 0.00, -0.00, -1.00, 985.0, 499.0)"> </text><text xml:space="preserve" font-family="Helvetica-Bold" font-weight="bold" font-size="112.0" fill="#000000" transform="matrix(1.00, 0.00, -0.00, -1.00, 1016.1, 499.0)">s</text><text xml:space="preserve" font-family="Helvetica-Bold" font-weight="bold" font-size="112.0" fill="#000000" transform="matrix(1.00, 0.00, -0.00, -1.00, 1078.4, 499.0)">u</text><text xml:space="preserve" font-family="Helvetica-Bold" font-weight="bold" font-size="112.0" fill="#000000" transform="matrix(1.00, 0.00, -0.00, -1.00, 1146.8, 499.0)">r</text><text xml:space="preserve" font-family="Helvetica-Bold" font-weight="bold" font-size="112.0" fill="#000000" transform="matrix(1.00, 0.00, -0.00, -1.00, 1190.4, 499.0)">v</text><text xml:space="preserve" font-family="Helvetica-Bold" font-weight="bold" font-size="112.0" fill="#000000" transform="matrix(1.00, 0.00, -0.00, -1.00, 1252.7, 499.0)">i</text><text xml:space="preserve" font-family="Helvetica-Bold" font-weight="bold" font-size="112.0" fill="#000000" transform="matrix(1.00, 0.00, -0.00, -1.00, 1283.8, 499.0)">v</text><text xml:space="preserve" font-family="Helvetica-Bold" font-weight="bold" font-size="112.0" fill="#000000" transform="matrix(1.00, 0.00, -0.00, -1.00, 1346.1, 499.0)">e</text><text xml:space="preserve" font-family="Helvetica-Bold" font-weight="bold" font-size="112.0" fill="#000000" transform="matrix(1.00, 0.00, -0.00, -1.00, 1408.4, 499.0)">…</text></g></svg>