<?xml version="1.0" encoding="UTF-8" standalone="no"?><svg xmlns="http://www.w3.org/2000/svg" xmlns:xlink="http://www.w3.org/1999/xlink" clip-rule="evenodd" stroke-miterlimit="4.00" viewBox="0 0 1920 1080"><desc>SVG generated by Keynote</desc><defs></defs><g transform="matrix(1.00, 0.00, -0.00, -1.00, 0.0, 1080.0)"><path d="M 0.0 1080.0 L 1920.0 1080.0 L 1920.0 0.0 L 0.0 0.0 Z M 0.0 1080.0 " fill="#FEFFFE"></path><text xml:space="preserve" font-family="Helvetica-Bold" font-weight="bold" font-size="112.0" fill="#000000" transform="matrix(1.00, 0.00, -0.00, -1.00, 157.0, 499.0)">[</text><text xml:space="preserve" font-family="Helvetica-Bold" font-weight="bold" font-size="112.0" fill="#000000" transform="matrix(1.00, 0.00, -0.00, -1.00, 194.3, 499.0)">t</text><text xml:space="preserve" font-family="Helvetica-Bold" font-weight="bold" font-size="112.0" fill="#000000" transform="matrix(1.00, 0.00, -0.00, -1.00, 231.6, 499.0)">h</text><text xml:space="preserve" font-family="Helvetica-Bold" font-weight="bold" font-size="112.0" fill="#000000" transform="matrix(1.00, 0.00, -0.00, -1.00, 300.0, 499.0)">i</text><text xml:space="preserve" font-family="Helvetica-Bold" font-weight="bold" font-size="112.0" fill="#000000" transform="matrix(1.00, 0.00, -0.00, -1.00, 331.1, 499.0)">s</text><text xml:space="preserve" font-family="Helvetica-Bold" font-weight="bold" font-size="112.0" fill="#000000" transform="matrix(1.00, 0.00, -0.00, -1.00, 393.4, 499.0)"> </text><text xml:space="preserve" font-family="Helvetica-Bold" font-weight="bold" font-size="112.0" fill="#000000" transform="matrix(1.00, 0.00, -0.00, -1.00, 424.5, 499.0)">s</text><text xml:space="preserve" font-family="Helvetica-Bold" font-weight="bold" font-size="112.0" fill="#000000" transform="matrix(1.00, 0.00, -0.00, -1.00, 486.8, 499.0)">l</text><text xml:space="preserve" font-family="Helvetica-Bold" font-weight="bold" font-size="112.0" fill="#000000" transform="matrix(1.00, 0.00, -0.00, -1.00, 517.9, 499.0)">i</text><text xml:space="preserve" font-family="Helvetica-Bold" font-weight="bold" font-size="112.0" fill="#000000" transform="matrix(1.00, 0.00, -0.00, -1.00, 549.0, 499.0)">d</text><text xml:space="preserve" font-family="Helvetica-Bold" font-weight="bold" font-size="112.0" fill="#000000" transform="matrix(1.00, 0.00, -0.00, -1.00, 617.4, 499.0)">e</text><text xml:space="preserve" font-family="Helvetica-Bold" font-weight="bold" font-size="112.0" fill="#000000" transform="matrix(1.00, 0.00, -0.00, -1.00, 679.7, 499.0)"> </text><text xml:space="preserve" font-family="Helvetica-Bold" font-weight="bold" font-size="112.0" fill="#000000" transform="matrix(1.00, 0.00, -0.00, -1.00, 710.8, 499.0)">i</text><text xml:space="preserve" font-family="Helvetica-Bold" font-weight="bold" font-size="112.0" fill="#000000" transform="matrix(1.00, 0.00, -0.00, -1.00, 741.9, 499.0)">r</text><text xml:space="preserve" font-family="Helvetica-Bold" font-weight="bold" font-size="112.0" fill="#000000" transform="matrix(1.00, 0.00, -0.00, -1.00, 785.5, 499.0)">o</text><text xml:space="preserve" font-family="Helvetica-Bold" font-weight="bold" font-size="112.0" fill="#000000" transform="matrix(1.00, 0.00, -0.00, -1.00, 853.9, 499.0)">n</text><text xml:space="preserve" font-family="Helvetica-Bold" font-weight="bold" font-size="112.0" fill="#000000" transform="matrix(1.00, 0.00, -0.00, -1.00, 922.3, 499.0)">i</text><text xml:space="preserve" font-family="Helvetica-Bold" font-weight="bold" font-size="112.0" fill="#000000" transform="matrix(1.00, 0.00, -0.00, -1.00, 953.4, 499.0)">c</text><text xml:space="preserve" font-family="Helvetica-Bold" font-weight="bold" font-size="112.0" fill="#000000" transform="matrix(1.00, 0.00, -0.00, -1.00, 1015.7, 499.0)">a</text><text xml:space="preserve" font-family="Helvetica-Bold" font-weight="bold" font-size="112.0" fill="#000000" transform="matrix(1.00, 0.00, -0.00, -1.00, 1078.0, 499.0)">l</text><text xml:space="preserve" font-family="Helvetica-Bold" font-weight="bold" font-size="112.0" fill="#000000" transform="matrix(1.00, 0.00, -0.00, -1.00, 1109.1, 499.0)">l</text><text xml:space="preserve" font-family="Helvetica-Bold" font-weight="bold" font-size="112.0" fill="#000000" transform="matrix(1.00, 0.00, -0.00, -1.00, 1140.2, 499.0)">y</text><text xml:space="preserve" font-family="Helvetica-Bold" font-weight="bold" font-size="112.0" fill="#000000" transform="matrix(1.00, 0.00, -0.00, -1.00, 1202.5, 499.0)"> </text><text xml:space="preserve" font-family="Helvetica-Bold" font-weight="bold" font-size="112.0" fill="#000000" transform="matrix(1.00, 0.00, -0.00, -1.00, 1233.6, 499.0)">l</text><text xml:space="preserve" font-family="Helvetica-Bold" font-weight="bold" font-size="112.0" fill="#000000" transform="matrix(1.00, 0.00, -0.00, -1.00, 1264.7, 499.0)">e</text><text xml:space="preserve" font-family="Helvetica-Bold" font-weight="bold" font-size="112.0" fill="#000000" transform="matrix(1.00, 0.00, -0.00, -1.00, 1327.0, 499.0)">f</text><text xml:space="preserve" font-family="Helvetica-Bold" font-weight="bold" font-size="112.0" fill="#000000" transform="matrix(1.00, 0.00, -0.00, -1.00, 1364.3, 499.0)">t</text><text xml:space="preserve" font-family="Helvetica-Bold" font-weight="bold" font-size="112.0" fill="#000000" transform="matrix(1.00, 0.00, -0.00, -1.00, 1401.6, 499.0)"> </text><text xml:space="preserve" font-family="Helvetica-Bold" font-weight="bold" font-size="112.0" fill="#000000" transform="matrix(1.00, 0.00, -0.00, -1.00, 1432.7, 499.0)">b</text><text xml:space="preserve" font-family="Helvetica-Bold" font-weight="bold" font-size="112.0" fill="#000000" transform="matrix(1.00, 0.00, -0.00, -1.00, 1501.1, 499.0)">l</text><text xml:space="preserve" font-family="Helvetica-Bold" font-weight="bold" font-size="112.0" fill="#000000" transform="matrix(1.00, 0.00, -0.00, -1.00, 1532.2, 499.0)">a</text><text xml:space="preserve" font-family="Helvetica-Bold" font-weight="bold" font-size="112.0" fill="#000000" transform="matrix(1.00, 0.00, -0.00, -1.00, 1594.5, 499.0)">n</text><text xml:space="preserve" font-family="Helvetica-Bold" font-weight="bold" font-size="112.0" fill="#000000" transform="matrix(1.00, 0.00, -0.00, -1.00, 1662.9, 499.0)">k</text><text xml:space="preserve" font-family="Helvetica-Bold" font-weight="bold" font-size="112.0" fill="#000000" transform="matrix(1.00, 0.00, -0.00, -1.00, 1725.2, 499.0)">]</text></g></svg>