<?xml version="1.0" encoding="UTF-8" standalone="no"?><svg xmlns="http://www.w3.org/2000/svg" xmlns:xlink="http://www.w3.org/1999/xlink" clip-rule="evenodd" stroke-miterlimit="4.00" viewBox="0 0 1920 1080"><desc>SVG generated by Keynote</desc><defs></defs><g transform="matrix(1.00, 0.00, -0.00, -1.00, 0.0, 1080.0)"><path d="M 0.0 1080.0 L 1920.0 1080.0 L 1920.0 0.0 L 0.0 0.0 Z M 0.0 1080.0 " fill="#FEFFFE"></path><text xml:space="preserve" font-family="Helvetica-Bold" font-weight="bold" font-size="200.0" fill="#000000" transform="matrix(1.00, 0.00, -0.00, -1.00, 226.0, 466.0)">w</text><text xml:space="preserve" font-family="Helvetica-Bold" font-weight="bold" font-size="200.0" fill="#000000" transform="matrix(1.00, 0.00, -0.00, -1.00, 381.5, 466.0)">e</text><text xml:space="preserve" font-family="Helvetica-Bold" font-weight="bold" font-size="200.0" fill="#000000" transform="matrix(1.00, 0.00, -0.00, -1.00, 492.8, 466.0)"> </text><text xml:space="preserve" font-family="Helvetica-Bold" font-weight="bold" font-size="200.0" fill="#000000" transform="matrix(1.00, 0.00, -0.00, -1.00, 548.3, 466.0)">a</text><text xml:space="preserve" font-family="Helvetica-Bold" font-weight="bold" font-size="200.0" fill="#000000" transform="matrix(1.00, 0.00, -0.00, -1.00, 659.6, 466.0)">r</text><text xml:space="preserve" font-family="Helvetica-Bold" font-weight="bold" font-size="200.0" fill="#000000" transform="matrix(1.00, 0.00, -0.00, -1.00, 737.5, 466.0)">e</text><text xml:space="preserve" font-family="Helvetica-Bold" font-weight="bold" font-size="200.0" fill="#000000" transform="matrix(1.00, 0.00, -0.00, -1.00, 848.7, 466.0)"> </text><text xml:space="preserve" font-family="Helvetica-Bold" font-weight="bold" font-size="200.0" fill="#000000" transform="matrix(1.00, 0.00, -0.00, -1.00, 904.3, 466.0)">o</text><text xml:space="preserve" font-family="Helvetica-Bold" font-weight="bold" font-size="200.0" fill="#000000" transform="matrix(1.00, 0.00, -0.00, -1.00, 1026.4, 466.0)">u</text><text xml:space="preserve" font-family="Helvetica-Bold" font-weight="bold" font-size="200.0" fill="#000000" transform="matrix(1.00, 0.00, -0.00, -1.00, 1148.5, 466.0)">r</text><text xml:space="preserve" font-family="Helvetica-Bold" font-weight="bold" font-size="200.0" fill="#000000" transform="matrix(1.00, 0.00, -0.00, -1.00, 1226.4, 466.0)"> </text><text xml:space="preserve" font-family="Helvetica-Bold" font-weight="bold" font-size="200.0" fill="#000000" transform="matrix(1.00, 0.00, -0.00, -1.00, 1281.9, 466.0)">d</text><text xml:space="preserve" font-family="Helvetica-Bold" font-weight="bold" font-size="200.0" fill="#000000" transform="matrix(1.00, 0.00, -0.00, -1.00, 1404.0, 466.0)">a</text><text xml:space="preserve" font-family="Helvetica-Bold" font-weight="bold" font-size="200.0" fill="#000000" transform="matrix(1.00, 0.00, -0.00, -1.00, 1515.3, 466.0)">t</text><text xml:space="preserve" font-family="Helvetica-Bold" font-weight="bold" font-size="200.0" fill="#000000" transform="matrix(1.00, 0.00, -0.00, -1.00, 1581.9, 466.0)">a</text></g></svg>