<?xml version="1.0" encoding="UTF-8" standalone="no"?><svg xmlns="http://www.w3.org/2000/svg" xmlns:xlink="http://www.w3.org/1999/xlink" clip-rule="evenodd" stroke-miterlimit="4.00" viewBox="0 0 1920 1080"><desc>SVG generated by Keynote</desc><defs></defs><g transform="matrix(1.00, 0.00, -0.00, -1.00, 0.0, 1080.0)"><path d="M 0.0 1080.0 L 1920.0 1080.0 L 1920.0 0.0 L 0.0 0.0 Z M 0.0 1080.0 " fill="#FEFFFE"></path><text xml:space="preserve" font-family="Helvetica-Bold" font-weight="bold" font-size="112.0" fill="#000000" transform="matrix(1.00, 0.00, -0.00, -1.00, 459.0, 499.0)">W</text><text xml:space="preserve" font-family="Helvetica-Bold" font-weight="bold" font-size="112.0" fill="#000000" transform="matrix(1.00, 0.00, -0.00, -1.00, 564.7, 499.0)">h</text><text xml:space="preserve" font-family="Helvetica-Bold" font-weight="bold" font-size="112.0" fill="#000000" transform="matrix(1.00, 0.00, -0.00, -1.00, 633.1, 499.0)">a</text><text xml:space="preserve" font-family="Helvetica-Bold" font-weight="bold" font-size="112.0" fill="#000000" transform="matrix(1.00, 0.00, -0.00, -1.00, 695.4, 499.0)">t</text><text xml:space="preserve" font-family="Helvetica-Bold" font-weight="bold" font-size="112.0" fill="#000000" transform="matrix(1.00, 0.00, -0.00, -1.00, 732.7, 499.0)"> </text><text xml:space="preserve" font-family="Helvetica-Bold" font-weight="bold" font-size="112.0" fill="#000000" transform="matrix(1.00, 0.00, -0.00, -1.00, 763.8, 499.0)">i</text><text xml:space="preserve" font-family="Helvetica-Bold" font-weight="bold" font-size="112.0" fill="#000000" transform="matrix(1.00, 0.00, -0.00, -1.00, 794.9, 499.0)">s</text><text xml:space="preserve" font-family="Helvetica-Bold" font-weight="bold" font-size="112.0" fill="#000000" transform="matrix(1.00, 0.00, -0.00, -1.00, 857.2, 499.0)"> </text><text xml:space="preserve" font-family="Helvetica-Bold" font-weight="bold" font-size="112.0" fill="#000000" transform="matrix(1.00, 0.00, -0.00, -1.00, 888.3, 499.0)">t</text><text xml:space="preserve" font-family="Helvetica-Bold" font-weight="bold" font-size="112.0" fill="#000000" transform="matrix(1.00, 0.00, -0.00, -1.00, 925.6, 499.0)">h</text><text xml:space="preserve" font-family="Helvetica-Bold" font-weight="bold" font-size="112.0" fill="#000000" transform="matrix(1.00, 0.00, -0.00, -1.00, 994.0, 499.0)">e</text><text xml:space="preserve" font-family="Helvetica-Bold" font-weight="bold" font-size="112.0" fill="#000000" transform="matrix(1.00, 0.00, -0.00, -1.00, 1056.3, 499.0)"> </text><text xml:space="preserve" font-family="Helvetica-Bold" font-weight="bold" font-size="112.0" fill="#000000" transform="matrix(1.00, 0.00, -0.00, -1.00, 1087.4, 499.0)">i</text><text xml:space="preserve" font-family="Helvetica-Bold" font-weight="bold" font-size="112.0" fill="#000000" transform="matrix(1.00, 0.00, -0.00, -1.00, 1118.5, 499.0)">n</text><text xml:space="preserve" font-family="Helvetica-Bold" font-weight="bold" font-size="112.0" fill="#000000" transform="matrix(1.00, 0.00, -0.00, -1.00, 1186.9, 499.0)">t</text><text xml:space="preserve" font-family="Helvetica-Bold" font-weight="bold" font-size="112.0" fill="#000000" transform="matrix(1.00, 0.00, -0.00, -1.00, 1224.2, 499.0)">e</text><text xml:space="preserve" font-family="Helvetica-Bold" font-weight="bold" font-size="112.0" fill="#000000" transform="matrix(1.00, 0.00, -0.00, -1.00, 1286.5, 499.0)">n</text><text xml:space="preserve" font-family="Helvetica-Bold" font-weight="bold" font-size="112.0" fill="#000000" transform="matrix(1.00, 0.00, -0.00, -1.00, 1354.9, 499.0)">t</text><text xml:space="preserve" font-family="Helvetica-Bold" font-weight="bold" font-size="112.0" fill="#000000" transform="matrix(1.00, 0.00, -0.00, -1.00, 1392.2, 499.0)">?</text></g></svg>