<?xml version="1.0" encoding="UTF-8" standalone="no"?><svg xmlns="http://www.w3.org/2000/svg" xmlns:xlink="http://www.w3.org/1999/xlink" clip-rule="evenodd" stroke-miterlimit="4.00" viewBox="0 0 1920 1080"><desc>SVG generated by Keynote</desc><defs></defs><g transform="matrix(1.00, 0.00, -0.00, -1.00, 0.0, 1080.0)"><path d="M 0.0 1080.0 L 1920.0 1080.0 L 1920.0 0.0 L 0.0 0.0 Z M 0.0 1080.0 " fill="#FEFFFE"></path><text xml:space="preserve" font-family="Helvetica-Bold" font-weight="bold" font-size="112.0" fill="#000000" transform="matrix(1.00, 0.00, -0.00, -1.00, 192.0, 499.0)">W</text><text xml:space="preserve" font-family="Helvetica-Bold" font-weight="bold" font-size="112.0" fill="#000000" transform="matrix(1.00, 0.00, -0.00, -1.00, 295.7, 499.0)">e</text><text xml:space="preserve" font-family="Helvetica-Bold" font-weight="bold" font-size="112.0" fill="#000000" transform="matrix(1.00, 0.00, -0.00, -1.00, 358.0, 499.0)"> </text><text xml:space="preserve" font-family="Helvetica-Bold" font-weight="bold" font-size="112.0" fill="#000000" transform="matrix(1.00, 0.00, -0.00, -1.00, 389.1, 499.0)">m</text><text xml:space="preserve" font-family="Helvetica-Bold" font-weight="bold" font-size="112.0" fill="#000000" transform="matrix(1.00, 0.00, -0.00, -1.00, 488.7, 499.0)">u</text><text xml:space="preserve" font-family="Helvetica-Bold" font-weight="bold" font-size="112.0" fill="#000000" transform="matrix(1.00, 0.00, -0.00, -1.00, 557.1, 499.0)">s</text><text xml:space="preserve" font-family="Helvetica-Bold" font-weight="bold" font-size="112.0" fill="#000000" transform="matrix(1.00, 0.00, -0.00, -1.00, 619.4, 499.0)">t</text><text xml:space="preserve" font-family="Helvetica-Bold" font-weight="bold" font-size="112.0" fill="#000000" transform="matrix(1.00, 0.00, -0.00, -1.00, 656.7, 499.0)"> </text><text xml:space="preserve" font-family="Helvetica-Bold" font-weight="bold" font-size="112.0" fill="#000000" transform="matrix(1.00, 0.00, -0.00, -1.00, 687.8, 499.0)">i</text><text xml:space="preserve" font-family="Helvetica-Bold" font-weight="bold" font-size="112.0" fill="#000000" transform="matrix(1.00, 0.00, -0.00, -1.00, 718.9, 499.0)">n</text><text xml:space="preserve" font-family="Helvetica-Bold" font-weight="bold" font-size="112.0" fill="#000000" transform="matrix(1.00, 0.00, -0.00, -1.00, 787.3, 499.0)">t</text><text xml:space="preserve" font-family="Helvetica-Bold" font-weight="bold" font-size="112.0" fill="#000000" transform="matrix(1.00, 0.00, -0.00, -1.00, 824.6, 499.0)">e</text><text xml:space="preserve" font-family="Helvetica-Bold" font-weight="bold" font-size="112.0" fill="#000000" transform="matrix(1.00, 0.00, -0.00, -1.00, 886.9, 499.0)">n</text><text xml:space="preserve" font-family="Helvetica-Bold" font-weight="bold" font-size="112.0" fill="#000000" transform="matrix(1.00, 0.00, -0.00, -1.00, 955.3, 499.0)">t</text><text xml:space="preserve" font-family="Helvetica-Bold" font-weight="bold" font-size="112.0" fill="#000000" transform="matrix(1.00, 0.00, -0.00, -1.00, 992.6, 499.0)">i</text><text xml:space="preserve" font-family="Helvetica-Bold" font-weight="bold" font-size="112.0" fill="#000000" transform="matrix(1.00, 0.00, -0.00, -1.00, 1023.7, 499.0)">o</text><text xml:space="preserve" font-family="Helvetica-Bold" font-weight="bold" font-size="112.0" fill="#000000" transform="matrix(1.00, 0.00, -0.00, -1.00, 1092.1, 499.0)">n</text><text xml:space="preserve" font-family="Helvetica-Bold" font-weight="bold" font-size="112.0" fill="#000000" transform="matrix(1.00, 0.00, -0.00, -1.00, 1160.5, 499.0)">a</text><text xml:space="preserve" font-family="Helvetica-Bold" font-weight="bold" font-size="112.0" fill="#000000" transform="matrix(1.00, 0.00, -0.00, -1.00, 1222.8, 499.0)">l</text><text xml:space="preserve" font-family="Helvetica-Bold" font-weight="bold" font-size="112.0" fill="#000000" transform="matrix(1.00, 0.00, -0.00, -1.00, 1253.9, 499.0)">l</text><text xml:space="preserve" font-family="Helvetica-Bold" font-weight="bold" font-size="112.0" fill="#000000" transform="matrix(1.00, 0.00, -0.00, -1.00, 1285.0, 499.0)">y</text><text xml:space="preserve" font-family="Helvetica-Bold" font-weight="bold" font-size="112.0" fill="#000000" transform="matrix(1.00, 0.00, -0.00, -1.00, 1347.3, 499.0)"> </text><text xml:space="preserve" font-family="Helvetica-Bold" font-weight="bold" font-size="112.0" fill="#000000" transform="matrix(1.00, 0.00, -0.00, -1.00, 1378.4, 499.0)">e</text><text xml:space="preserve" font-family="Helvetica-Bold" font-weight="bold" font-size="112.0" fill="#000000" transform="matrix(1.00, 0.00, -0.00, -1.00, 1440.7, 499.0)">v</text><text xml:space="preserve" font-family="Helvetica-Bold" font-weight="bold" font-size="112.0" fill="#000000" transform="matrix(1.00, 0.00, -0.00, -1.00, 1503.0, 499.0)">o</text><text xml:space="preserve" font-family="Helvetica-Bold" font-weight="bold" font-size="112.0" fill="#000000" transform="matrix(1.00, 0.00, -0.00, -1.00, 1571.4, 499.0)">l</text><text xml:space="preserve" font-family="Helvetica-Bold" font-weight="bold" font-size="112.0" fill="#000000" transform="matrix(1.00, 0.00, -0.00, -1.00, 1602.5, 499.0)">v</text><text xml:space="preserve" font-family="Helvetica-Bold" font-weight="bold" font-size="112.0" fill="#000000" transform="matrix(1.00, 0.00, -0.00, -1.00, 1664.8, 499.0)">e</text></g></svg>